<?xml version="1.0" standalone="no"?>
<!DOCTYPE svg PUBLIC "-//W3C//DTD SVG 20010904//EN"
 "http://www.w3.org/TR/2001/REC-SVG-20010904/DTD/svg10.dtd">
<svg version="1.0" xmlns="http://www.w3.org/2000/svg"
 width="700.000000pt" height="700.000000pt" viewBox="0 0 700.000000 700.000000"
 preserveAspectRatio="xMidYMid meet">
<metadata>
Created by potrace 1.14, written by Peter Selinger 2001-2017
</metadata>
<g transform="translate(0.000000,700.000000) scale(0.100000,-0.100000)"
fill="#000000" stroke="none">
<path d="M2765 6640 c-139 -13 -241 -56 -379 -165 -80 -62 -101 -83 -298 -286
-57 -59 -146 -150 -198 -204 -52 -54 -105 -112 -117 -128 -13 -17 -23 -27 -23
-22 0 4 -9 0 -20 -10 -12 -10 -19 -24 -16 -31 3 -9 -1 -11 -12 -7 -9 3 -14 3
-10 -1 4 -5 -19 -34 -50 -66 -31 -31 -74 -76 -94 -99 -21 -23 -38 -39 -38 -36
0 3 -9 -4 -20 -15 -22 -22 -27 -35 -8 -24 7 4 8 3 4 -5 -4 -6 -12 -9 -17 -6
-15 10 -40 -20 -27 -33 8 -8 4 -9 -12 -5 -19 5 -22 3 -17 -10 4 -11 2 -14 -9
-10 -13 5 -19 -8 -15 -30 1 -5 -3 -6 -9 -2 -11 7 -55 -41 -55 -60 0 -5 -5 -10
-12 -10 -15 0 -109 -96 -105 -107 1 -4 -4 -8 -10 -8 -7 0 -24 -14 -38 -31 -13
-17 -48 -54 -77 -82 -29 -27 -50 -54 -47 -59 3 -5 2 -7 -3 -6 -14 5 -125 -111
-117 -124 4 -6 3 -8 -4 -4 -6 3 -16 0 -24 -7 -156 -159 -372 -391 -370 -399 1
-5 -2 -7 -6 -4 -9 5 -108 -105 -205 -225 -20 -25 -50 -76 -67 -115 -17 -38
-35 -76 -39 -84 -5 -9 -12 -31 -17 -50 -4 -19 -9 -38 -10 -42 -1 -5 -2 -9 -4
-10 -12 -15 -27 -147 -29 -256 -6 -363 -5 -412 3 -412 5 0 4 -6 -1 -12 -6 -8
-9 -346 -8 -893 3 -1033 5 -1200 16 -1257 5 -24 11 -61 15 -83 7 -52 34 -135
43 -135 4 0 7 -9 8 -19 2 -28 57 -135 100 -195 50 -71 167 -184 235 -229 71
-48 221 -113 318 -139 69 -19 113 -21 540 -24 353 -3 1889 -6 2015 -4 11 0
133 1 270 1 633 0 1001 6 1020 16 11 6 23 11 28 12 38 4 106 64 142 126 48 81
55 134 32 232 -17 70 -94 144 -178 172 -26 8 -292 13 -960 16 -508 2 -924 4
-924 5 0 1 -8 3 -18 5 -9 2 -15 -1 -11 -6 3 -5 1 -9 -5 -9 -5 0 -13 5 -16 10
-4 7 -13 6 -27 -1 -14 -8 -23 -8 -31 0 -7 7 -16 7 -30 -1 -11 -5 -22 -6 -26
-2 -9 13 -34 16 -26 4 3 -5 1 -10 -4 -10 -6 0 -11 6 -11 13 0 8 -4 7 -10 -3
-9 -13 -10 -13 -10 0 0 9 -3 11 -8 5 -10 -14 -52 -17 -52 -4 0 8 -5 7 -15 -1
-9 -7 -18 -10 -22 -6 -3 3 0 6 7 6 7 0 10 3 7 6 -4 4 -13 1 -22 -6 -8 -7 -15
-8 -15 -3 0 11 -29 11 -48 -1 -7 -4 -12 -2 -12 5 0 8 -5 7 -17 -2 -11 -10 -14
-10 -9 -1 4 6 3 12 -3 12 -5 0 -12 -6 -15 -12 -5 -10 -7 -10 -12 0 -5 10 -9
10 -22 0 -12 -10 -14 -10 -8 0 4 6 2 12 -3 12 -6 0 -11 -4 -11 -10 0 -5 -5
-10 -11 -10 -5 0 -7 5 -3 11 4 7 -1 7 -16 -1 -15 -8 -20 -8 -16 -1 4 6 3 11
-3 11 -5 0 -11 -6 -14 -12 -3 -10 -7 -10 -17 -1 -9 8 -19 9 -32 2 -12 -7 -18
-6 -18 1 0 8 -6 8 -20 0 -13 -7 -20 -7 -20 -1 0 7 -9 7 -25 1 -16 -6 -25 -6
-25 0 0 12 -22 9 -32 -5 -5 -6 -8 -5 -8 3 0 10 -5 10 -20 2 -15 -8 -20 -8 -20
1 0 9 -3 9 -14 0 -10 -9 -16 -9 -21 -1 -5 8 -11 8 -19 1 -7 -6 -16 -8 -20 -4
-12 12 -36 12 -36 0 0 -8 -3 -7 -9 2 -6 10 -13 11 -29 2 -15 -8 -23 -8 -28 0
-4 8 -9 7 -15 -2 -6 -10 -9 -11 -9 -1 0 6 -5 12 -11 12 -5 0 -8 -4 -5 -8 3 -5
-1 -9 -9 -9 -8 0 -12 4 -9 9 6 10 -26 6 -45 -6 -10 -6 -12 -5 -7 2 9 14 -3 15
-24 3 -8 -6 -19 -7 -25 -3 -5 3 -176 7 -380 8 -428 2 -388 1 -379 16 4 6 3 8
-4 4 -6 -3 -13 -2 -16 3 -3 5 -16 7 -29 5 -12 -2 -17 -2 -11 1 7 4 -22 39 -67
83 -46 45 -79 85 -79 97 0 12 -3 16 -8 9 -4 -7 -13 1 -24 22 -14 27 -14 32 -3
27 8 -3 13 -9 10 -13 -3 -5 -1 -11 4 -15 18 -10 2 37 -16 51 -13 10 -14 13 -3
9 12 -4 16 2 16 29 0 19 -4 32 -8 30 -10 -6 -11 10 -1 20 10 10 13 37 3 31 -4
-3 -10 2 -13 10 -4 9 -1 12 7 9 8 -3 12 3 11 18 -2 13 -8 22 -16 20 -9 -1 -7
3 4 12 18 14 18 15 0 25 -17 10 -17 10 0 11 10 0 15 5 12 10 -4 6 -10 8 -14 6
-3 -3 -7 4 -7 14 0 10 6 16 12 13 12 -4 11 48 -1 68 -4 5 -2 9 3 9 10 0 9 30
-2 48 -4 7 -2 12 4 12 6 0 8 5 5 10 -4 6 -12 8 -18 4 -7 -3 -3 2 7 10 13 10
15 16 7 16 -11 0 -11 3 0 17 10 11 10 14 1 9 -7 -4 -12 -1 -12 9 0 10 5 14 13
10 6 -4 4 0 -6 8 -16 13 -16 15 -1 21 12 5 14 10 5 19 -8 10 -7 17 2 27 7 8 7
10 1 7 -7 -4 -11 3 -11 18 0 14 5 25 11 25 6 0 4 5 -4 10 -13 9 -13 11 0 20
11 7 11 10 2 10 -7 0 -11 4 -8 9 4 5 0 12 -6 14 -10 4 -10 6 0 6 6 1 12 6 12
12 0 5 -6 7 -13 3 -6 -4 -3 3 8 16 19 22 19 23 1 16 -14 -5 -16 -3 -9 6 6 7 9
20 7 28 -1 8 -5 25 -8 38 -3 13 -1 20 5 17 12 -8 12 2 -2 27 -7 13 -7 18 -1
14 6 -3 13 -2 17 4 3 5 0 10 -7 10 -9 0 -9 3 2 10 10 6 11 10 3 10 -9 0 -11
12 -8 40 4 28 1 40 -7 40 -8 0 -9 3 -3 8 11 8 17 94 6 88 -4 -3 -7 4 -7 14 0
15 3 17 15 7 12 -10 13 -9 5 8 -6 11 -10 40 -9 65 0 25 -4 48 -10 52 -6 5 -5
8 3 8 6 0 12 5 12 11 0 5 -6 7 -13 3 -9 -6 -9 -4 -2 7 16 22 20 73 4 64 -9 -6
-10 -4 -3 6 12 19 12 52 -1 61 -6 5 -6 8 3 8 6 0 12 5 12 11 0 5 -6 7 -12 3
-10 -6 -10 -5 -1 7 19 23 19 25 3 44 -9 11 -10 16 -2 11 6 -4 12 -3 12 3 0 5
-5 13 -10 16 -8 5 -7 12 2 22 7 9 13 17 13 18 0 1 -6 9 -13 18 -10 12 -10 17
-1 23 8 5 9 3 4 -6 -5 -9 -4 -11 4 -6 8 5 9 12 3 19 -5 7 -8 31 -7 54 1 29 -1
40 -9 36 -6 -4 -5 1 3 10 7 9 10 17 7 17 -4 0 -2 9 4 19 6 12 6 22 1 25 -5 4
-7 20 -4 37 3 24 2 29 -9 23 -10 -6 -10 -4 1 9 7 9 10 17 6 17 -4 0 -1 8 6 17
10 11 10 14 1 9 -9 -5 -11 2 -7 29 3 26 1 34 -8 28 -8 -4 -7 -1 1 10 8 9 11
21 7 27 -3 5 0 10 7 10 8 0 6 5 -5 11 -14 8 -16 14 -6 25 6 8 8 14 5 14 -4 0
-2 9 4 19 7 14 6 23 -4 33 -11 11 -11 16 2 27 13 13 13 16 -2 26 -15 11 -15
13 -1 19 10 4 13 11 8 18 -12 21 -13 41 0 57 8 10 8 12 1 8 -8 -4 -11 5 -10
28 0 19 4 35 7 35 3 0 5 10 3 23 -1 12 -3 26 -3 30 -1 5 -7 5 -13 2 -7 -4 -4
1 6 9 19 15 19 16 1 16 -18 0 -18 1 1 16 19 15 19 16 -1 10 -20 -6 -20 -6 -1
9 14 11 16 15 5 15 -12 0 -12 2 1 10 14 9 7 14 -15 11 -5 -1 -1 6 9 14 12 9
15 15 7 15 -11 0 -11 3 0 17 10 11 10 14 1 9 -6 -4 -12 -2 -12 3 0 6 6 11 13
11 8 0 7 4 -3 10 -13 9 -13 10 0 10 13 0 13 1 0 10 -13 9 -13 11 0 20 12 8 13
10 1 10 -8 0 -11 3 -8 7 4 3 2 12 -5 20 -8 10 -8 12 4 8 9 -4 15 0 15 9 0 8
-4 13 -8 11 -4 -3 -9 2 -12 10 -4 10 -1 12 11 8 9 -3 14 -3 10 1 -3 4 0 26 8
48 13 38 13 40 -4 27 -17 -13 4 12 74 86 21 22 58 65 83 95 26 30 118 127 206
216 225 226 306 314 298 327 -3 5 -2 7 4 4 12 -7 169 148 165 163 -1 6 2 9 7
8 11 -4 60 42 151 142 41 46 138 147 215 226 124 126 470 481 677 695 40 42
99 97 131 124 54 45 61 48 115 48 32 0 68 -6 81 -12 12 -7 64 -56 114 -109
212 -223 293 -307 507 -526 124 -127 304 -311 400 -410 96 -98 257 -263 357
-365 100 -102 199 -206 220 -231 21 -25 110 -117 198 -206 88 -88 203 -207
255 -263 107 -116 146 -145 224 -165 205 -54 401 138 354 346 -14 65 -94 162
-343 414 -123 124 -233 238 -244 253 -12 14 -88 94 -169 176 -81 83 -246 253
-367 379 -290 302 -275 287 -287 280 -7 -4 -8 -2 -4 5 5 7 -33 52 -99 119 -59
59 -177 181 -263 271 -87 90 -179 187 -207 215 -27 29 -90 94 -139 144 -49 51
-116 110 -148 132 -66 44 -213 104 -230 94 -6 -4 -8 -3 -5 3 10 16 -18 23
-117 29 -50 3 -95 7 -101 8 -5 1 -41 -1 -80 -4z m-2040 -2739 c-6 -5 -25 10
-25 20 0 5 6 4 14 -3 8 -7 12 -15 11 -17z m-557 -926 c-3 -3 -9 2 -12 12 -6
14 -5 15 5 6 7 -7 10 -15 7 -18z m545 -1370 c-3 -9 -8 -14 -10 -11 -3 3 -2 9
2 15 9 16 15 13 8 -4z m221 -656 c-3 -5 -10 -7 -15 -3 -5 3 -7 10 -3 15 3 5
10 7 15 3 5 -3 7 -10 3 -15z"/>
<path d="M4035 3372 c-51 -10 -63 -59 -35 -134 11 -29 17 -54 14 -57 -3 -3
-85 -7 -182 -9 -186 -3 -207 -6 -197 -22 3 -5 2 -10 -2 -10 -5 0 -9 -8 -10
-18 -1 -10 5 -19 13 -19 8 0 14 4 14 9 0 5 6 6 13 1 16 -10 58 -12 52 -2 -6 9
15 6 31 -4 6 -3 14 -3 18 0 10 11 37 12 30 2 -3 -5 0 -9 5 -9 6 0 11 5 11 12
0 9 3 9 12 0 7 -7 17 -12 23 -12 5 0 3 5 -5 10 -12 7 -10 9 7 7 12 0 20 -4 18
-7 -2 -3 29 -5 68 -5 113 1 125 -2 137 -41 7 -19 16 -32 21 -29 5 4 6 0 4 -8
-3 -7 12 -57 33 -110 22 -54 35 -100 31 -103 -5 -3 -25 0 -44 6 -19 6 -55 12
-79 14 -25 1 -49 5 -52 9 -12 12 -26 8 -18 -5 5 -10 4 -10 -6 -1 -11 10 -17
10 -29 0 -12 -9 -13 -9 -7 1 4 6 2 12 -3 12 -6 0 -11 -6 -11 -12 0 -9 -3 -9
-8 -3 -6 9 -26 12 -34 5 -2 -1 -10 -3 -19 -5 -36 -7 -65 -18 -79 -30 -8 -8
-18 -13 -22 -12 -8 2 -54 -59 -68 -93 -18 -40 -14 -113 9 -159 12 -22 25 -41
30 -41 5 0 11 -8 13 -18 3 -10 35 -33 73 -51 83 -41 191 -59 324 -55 103 4
138 18 139 56 1 13 3 32 4 42 2 15 -4 20 -29 23 -18 2 -33 0 -33 -4 0 -4 -30
-8 -68 -9 -37 0 -85 -4 -106 -8 -27 -4 -42 -3 -48 6 -6 10 -8 10 -8 1 0 -7
-12 -13 -26 -13 -14 0 -22 4 -19 10 3 6 -1 7 -9 4 -9 -3 -16 -2 -16 3 0 6 -18
18 -39 28 -22 10 -42 24 -45 32 -3 8 -11 11 -18 7 -7 -4 -10 -3 -5 1 4 5 -3
20 -15 33 -13 14 -17 22 -10 18 7 -4 12 -1 12 9 0 9 -5 13 -10 10 -11 -7 6 37
29 74 32 50 129 91 160 67 11 -8 13 -8 7 2 -4 6 -3 12 3 12 5 0 12 -4 15 -8 3
-5 20 -7 38 -6 18 1 35 -1 38 -4 3 -4 19 -12 35 -19 17 -6 59 -23 94 -38 64
-27 65 -27 98 -10 50 27 55 37 38 76 -8 19 -19 41 -25 49 -9 15 -62 130 -64
140 -8 35 -42 110 -50 110 -6 0 -6 3 0 9 5 5 34 12 64 15 30 3 82 8 115 12 33
4 66 7 73 7 12 0 29 43 21 52 -9 9 -289 9 -289 0 0 -18 -27 30 -49 90 -48 129
-47 127 -96 117z"/>
<path d="M5618 3373 c-10 -2 -18 -9 -18 -15 0 -6 -3 -8 -6 -5 -10 10 -44 -12
-44 -28 0 -17 -13 -26 -48 -30 -35 -4 -299 -17 -380 -19 -50 -1 -67 -5 -78
-20 -24 -34 -2 -43 101 -43 65 0 92 3 88 11 -3 6 0 5 8 -1 7 -7 19 -13 27 -13
8 0 10 5 6 13 -6 9 -3 8 9 -1 9 -8 28 -12 44 -10 l27 3 1 -97 c1 -82 -1 -98
-14 -99 -9 -1 -43 -2 -76 -2 -33 -1 -63 -6 -67 -12 -5 -7 -8 -6 -8 1 0 12 -99
12 -119 0 -10 -6 -12 -5 -7 2 4 7 1 12 -9 12 -11 0 -15 -5 -11 -16 3 -8 2 -12
-4 -9 -6 3 -10 2 -10 -3 0 -30 68 -44 230 -46 l95 -2 0 -129 c-1 -123 -2 -130
-20 -127 -11 1 -57 3 -103 3 -66 0 -93 -4 -128 -22 -35 -16 -44 -26 -41 -40 3
-12 -2 -20 -14 -24 -23 -8 -35 -65 -23 -113 8 -29 19 -40 71 -69 54 -29 73
-34 130 -34 107 -1 193 42 226 112 10 22 22 39 26 39 5 0 25 -11 45 -25 20
-14 43 -25 51 -25 8 0 15 -7 15 -15 0 -25 34 -17 62 15 33 38 27 64 -21 94
-35 23 -110 52 -123 48 -19 -5 -31 36 -32 118 0 52 -5 90 -11 90 -7 0 -7 3 0
8 6 4 10 23 10 42 0 19 -4 38 -10 42 -6 5 -5 8 3 8 7 0 11 4 8 9 -3 5 31 9 77
10 117 1 115 1 121 17 3 8 1 14 -5 14 -6 0 -7 5 -4 10 4 6 -9 10 -32 11 -21 0
-46 2 -55 4 -10 2 -18 -2 -18 -8 0 -8 -3 -8 -8 1 -6 8 -22 11 -45 8 -21 -2
-35 -1 -32 4 3 5 -1 10 -7 13 -10 4 -10 7 -1 18 9 9 10 16 2 26 -7 7 -8 13 -3
13 5 0 9 23 9 50 0 28 -4 50 -8 50 -5 0 -5 5 -2 11 4 6 9 8 13 5 3 -3 11 2 19
12 12 16 13 16 7 -1 -5 -13 -2 -16 9 -11 10 3 24 -4 38 -20 12 -14 26 -23 31
-20 4 3 8 1 8 -4 0 -12 46 -32 75 -32 31 0 104 71 107 102 3 48 -3 74 -22 89
-11 9 -16 19 -13 23 4 3 1 6 -6 6 -7 0 -19 7 -27 15 -15 14 -50 18 -86 8z m87
-92 c13 -27 13 -31 -4 -52 -12 -15 -29 -22 -49 -22 -39 0 -42 2 -47 42 -7 59
72 85 100 32z"/>
<path d="M2843 3198 c-94 -95 -189 -193 -211 -217 -44 -47 -64 -103 -50 -142
12 -35 150 -161 168 -154 8 4 11 3 7 -1 -3 -4 22 -35 57 -70 35 -35 74 -76 86
-91 12 -15 46 -54 76 -85 29 -32 50 -58 46 -58 -15 -1 33 -30 50 -30 9 0 33
16 53 35 31 31 34 39 24 58 -18 35 -101 117 -112 110 -6 -3 -7 -1 -3 5 3 6 -8
21 -25 34 -17 13 -43 35 -59 50 -57 56 -156 125 -173 120 -5 -1 -6 1 -3 6 3 5
-14 24 -39 42 -73 55 -71 66 47 179 57 55 121 114 143 131 54 43 175 159 175
168 -1 12 -34 48 -61 65 l-26 17 -170 -172z"/>
<path d="M1480 3333 c-25 -10 -30 -25 -30 -95 l0 -68 -60 -1 c-89 -2 -106 -9
-91 -37 8 -13 25 -17 78 -17 l68 -1 3 -97 c2 -74 0 -97 -10 -98 -7 0 -41 0
-75 -1 -35 0 -63 -4 -63 -9 0 -5 -6 -8 -12 -7 -19 4 -22 -38 -4 -45 9 -4 16
-1 16 6 0 9 2 9 8 0 4 -6 33 -13 65 -16 32 -3 60 -7 63 -10 6 -6 12 -66 18
-179 3 -65 10 -101 29 -140 31 -67 56 -92 120 -124 104 -50 223 -35 326 43 76
57 138 134 125 154 -4 7 -3 9 3 6 5 -4 15 4 20 16 33 68 44 100 49 141 l7 46
-37 0 c-32 0 -39 -4 -50 -32 -8 -18 -12 -38 -9 -45 3 -7 1 -13 -4 -13 -6 0
-18 -19 -28 -42 -20 -44 -102 -140 -126 -146 -8 -2 -17 -8 -20 -14 -10 -15
-78 -38 -115 -38 -37 0 -93 18 -115 37 -24 21 -58 141 -56 195 2 30 -1 44 -8
40 -5 -3 -4 2 4 11 10 13 10 17 1 17 -10 0 -10 3 0 15 10 12 10 15 -1 15 -9 0
-10 3 -4 8 6 4 10 16 9 27 -1 19 5 20 152 19 113 -1 152 1 147 10 -4 6 0 5 9
-2 13 -10 17 -10 21 0 3 7 6 8 6 2 1 -15 73 -7 83 9 12 20 -10 34 -59 36 -26
0 -49 3 -51 6 -3 3 -12 -1 -20 -8 -13 -9 -14 -9 -8 1 9 16 -6 16 -22 0 -10
-10 -15 -10 -23 2 -8 11 -12 12 -16 3 -2 -7 -9 -13 -14 -13 -6 0 -8 4 -5 8 2
4 -38 8 -91 7 -52 0 -100 3 -106 7 -6 3 -12 23 -13 42 -1 24 2 33 10 29 8 -5
8 -3 0 8 -11 16 -11 18 -1 72 5 23 12 35 19 31 5 -4 14 -1 18 7 7 10 11 10 24
0 11 -9 16 -10 16 -2 0 6 5 11 11 11 5 0 8 -3 6 -7 -3 -5 15 -8 39 -8 24 0 44
4 44 9 0 5 7 3 15 -4 10 -8 15 -9 15 -2 0 14 72 11 82 -3 5 -7 8 -6 8 1 0 6
21 9 54 7 45 -2 55 0 59 16 9 38 -4 40 -208 43 l-198 3 -4 55 c-1 30 -4 64 -6
74 -5 28 -50 43 -87 29z m500 -453 c0 -5 -5 -10 -11 -10 -5 0 -7 5 -4 10 3 6
8 10 11 10 2 0 4 -4 4 -10z"/>
<path d="M4800 3295 c-6 -8 -14 -33 -16 -56 -2 -23 -8 -58 -13 -78 -5 -20 -12
-61 -16 -91 -6 -53 -9 -75 -21 -130 -15 -75 2 -331 25 -365 4 -5 8 -26 10 -45
1 -19 12 -55 23 -79 20 -41 22 -43 56 -38 19 4 36 7 37 9 2 2 5 44 9 93 5 93
8 108 20 137 4 9 4 22 0 29 -4 7 -3 9 4 6 6 -4 17 12 26 40 21 61 20 80 -3 86
-20 5 -64 -19 -57 -31 5 -9 -27 -65 -39 -69 -16 -5 -8 136 15 262 5 28 15 88
23 135 8 47 19 96 24 109 5 13 8 34 5 46 -7 39 -87 61 -112 30z"/>
<path d="M6371 3193 c-40 -46 -67 -97 -85 -165 -14 -52 -22 -78 -66 -208 -27
-79 -50 -182 -44 -192 3 -4 0 -8 -7 -8 -7 0 -10 -3 -6 -6 3 -3 2 -16 -3 -28
-4 -13 -4 -29 1 -39 6 -9 6 -17 1 -17 -4 0 -8 -24 -9 -53 0 -58 -20 -106 -63
-152 -16 -16 -45 -61 -65 -100 -63 -117 -68 -122 -153 -149 -42 -13 -98 -27
-124 -31 -29 -4 -45 -11 -41 -18 4 -6 1 -7 -8 -2 -7 5 -45 10 -84 11 -60 1
-122 10 -210 28 -11 3 -88 27 -172 55 -83 28 -164 51 -180 52 -80 5 -83 -9
-10 -48 28 -16 61 -34 72 -41 11 -7 31 -17 45 -22 36 -15 88 -47 143 -88 l48
-37 -22 -18 c-24 -20 -15 -17 -209 -53 -304 -56 -335 -62 -352 -69 -21 -8 -24
-24 -5 -26 6 -1 22 -3 34 -4 16 -2 20 2 16 14 -5 14 -4 13 8 -1 14 -17 59 -23
127 -15 18 2 35 0 38 -5 3 -5 10 -6 15 -2 6 3 58 8 117 11 59 3 113 9 120 15
8 8 12 7 12 -3 0 -11 2 -11 10 1 5 8 12 12 15 8 4 -3 20 -2 36 2 17 5 31 5 34
-1 4 -5 14 -5 23 -1 19 10 152 8 225 -2 53 -7 126 -30 170 -52 26 -14 26 -16
13 -42 -18 -34 -62 -75 -103 -96 -17 -8 -38 -22 -45 -30 -8 -8 -60 -37 -115
-65 -56 -27 -141 -74 -189 -103 -49 -29 -101 -59 -115 -68 -139 -82 -163 -106
-142 -144 7 -13 31 -5 155 54 80 39 154 70 163 70 9 0 24 4 34 10 10 5 32 12
50 15 17 3 64 13 104 21 39 9 83 18 97 21 14 3 32 7 40 10 8 3 38 7 65 9 66 5
211 42 257 65 20 10 50 35 65 55 58 77 91 103 178 147 50 25 104 59 120 74 51
49 142 123 150 123 4 0 31 24 59 53 33 35 62 56 84 60 17 4 32 11 32 16 0 5
-22 23 -50 41 -27 17 -59 47 -70 66 -30 47 -88 61 -172 39 -22 -6 -27 -4 -26
12 0 25 -10 195 -18 296 -12 145 -7 339 13 542 4 39 8 84 8 102 0 17 3 29 6
27 4 -2 7 7 7 21 0 14 -4 22 -9 20 -4 -3 -11 -1 -14 5 -4 6 -1 9 5 8 15 -4 22
30 11 49 -5 10 -16 3 -40 -24z m126 -1251 c-15 -15 -27 -33 -27 -40 0 -7 -5
-12 -12 -12 -10 0 -33 -17 -131 -100 -10 -8 -40 -22 -66 -32 l-49 -16 -6 24
c-7 26 8 64 25 64 6 0 25 15 42 33 56 56 114 84 190 90 20 2 40 6 43 10 4 4
10 7 13 7 2 0 -7 -13 -22 -28z"/>
<path d="M3107 3113 c-4 -3 -7 -48 -7 -100 0 -93 0 -93 25 -93 42 0 64 31 64
94 0 38 -6 62 -17 75 -19 21 -55 35 -65 24z"/>
<path d="M3010 3100 c-19 -12 -27 -144 -10 -165 15 -18 46 -20 56 -4 3 6 8 49
10 95 4 82 3 84 -18 84 -13 0 -30 -4 -38 -10z"/>
<path d="M2258 2245 c-2 -2 -32 -5 -69 -9 -249 -22 -597 -130 -852 -265 -195
-103 -217 -121 -217 -186 0 -51 13 -61 46 -38 16 11 94 52 174 90 245 119 465
198 715 254 133 30 438 30 690 -1 112 -14 148 -21 300 -56 11 -2 52 -11 90
-20 39 -8 79 -18 90 -20 11 -3 31 -7 45 -10 14 -3 41 -9 60 -14 19 -5 46 -11
60 -14 14 -2 117 -25 230 -51 523 -118 531 -120 612 -120 25 0 44 -3 42 -6 -6
-10 276 -16 374 -8 23 1 42 7 42 11 0 4 -4 8 -10 8 -17 0 -11 28 8 40 16 11
16 11 0 6 -10 -3 -18 -1 -18 4 0 6 4 10 10 10 5 0 3 8 -5 18 -12 13 -31 17
-90 16 -40 0 -72 3 -70 7 6 8 -48 4 -63 -5 -6 -3 -13 -2 -17 4 -3 5 -11 10
-16 10 -6 0 -7 -6 -2 -12 4 -7 -4 -6 -19 4 -19 12 -28 14 -37 5 -7 -7 -11 -7
-11 -1 0 6 -6 11 -12 11 -7 1 -30 4 -52 7 -21 3 -57 8 -80 11 -90 13 -167 28
-305 61 -171 41 -495 114 -531 120 -14 3 -33 7 -42 10 -10 3 -29 7 -44 10 -14
3 -76 15 -137 29 -62 13 -125 26 -142 29 -29 6 -51 10 -105 21 -14 2 -38 7
-55 9 -16 2 -48 7 -70 10 -85 13 -166 18 -337 20 -98 2 -179 2 -180 1z"/>
<path d="M4680 1806 c0 -2 7 -7 16 -10 8 -3 12 -2 9 4 -6 10 -25 14 -25 6z"/>
</g>
</svg>
