<?xml version="1.0" encoding="UTF-8"?>
<!DOCTYPE svg PUBLIC "-//W3C//DTD SVG 1.1//EN" "http://www.w3.org/Graphics/SVG/1.1/DTD/svg11.dtd">
<svg xmlns="http://www.w3.org/2000/svg" version="1.1" width="500px" height="500px" style="shape-rendering:geometricPrecision; text-rendering:geometricPrecision; image-rendering:optimizeQuality; fill-rule:evenodd; clip-rule:evenodd" xmlns:xlink="http://www.w3.org/1999/xlink">
<g><path style="opacity:1" fill="#f8d29f" d="M 221.5,28.5 C 208.417,26.5229 195.584,27.5229 183,31.5C 180.946,33.7719 178.779,35.9385 176.5,38C 174.512,38.1805 172.512,38.0138 170.5,37.5C 177.244,31.2965 185.244,27.4632 194.5,26C 200.833,25.3333 207.167,25.3333 213.5,26C 216.457,26.2794 219.123,27.1127 221.5,28.5 Z"/></g>
<g><path style="opacity:1" fill="#feca84" d="M 221.5,28.5 C 225.635,31.4051 229.968,34.0718 234.5,36.5C 238.5,39.8333 242.5,43.1667 246.5,46.5C 248.003,50.7657 251.003,53.4324 255.5,54.5C 257.833,56.1667 259.833,58.1667 261.5,60.5C 263.201,64.0357 265.367,67.369 268,70.5C 272.087,73.3046 275.754,76.638 279,80.5C 279.483,81.448 279.649,82.448 279.5,83.5C 283.653,84.9708 286.987,87.6374 289.5,91.5C 290.622,92.6302 291.956,93.2969 293.5,93.5C 293.833,96.5 295.5,98.1667 298.5,98.5C 298.043,102.42 299.709,104.92 303.5,106C 310.532,112.697 317.198,119.697 323.5,127C 324.745,127.791 326.078,128.291 327.5,128.5C 332.139,133.474 336.805,138.474 341.5,143.5C 346.731,150.402 352.731,156.735 359.5,162.5C 364.167,166.5 368.5,170.833 372.5,175.5C 375.167,180.167 378.833,183.833 383.5,186.5C 383.5,188.5 383.5,190.5 383.5,192.5C 386.617,192.642 389.117,193.976 391,196.5C 391.748,198.909 392.915,201.075 394.5,203C 393.899,204.605 392.899,205.938 391.5,207C 392.191,208.067 392.691,209.234 393,210.5C 393.483,209.552 393.649,208.552 393.5,207.5C 394.5,207.5 395.5,207.5 396.5,207.5C 396.64,213.13 395.64,218.463 393.5,223.5C 390.553,224.405 387.887,225.905 385.5,228C 377.486,231.124 370.653,229.624 365,223.5C 363.2,222.68 361.366,222.014 359.5,221.5C 357.167,219.833 355.167,217.833 353.5,215.5C 351.575,210.574 348.242,206.908 343.5,204.5C 340.5,202.167 337.833,199.5 335.5,196.5C 335.5,195.167 335.5,193.833 335.5,192.5C 334.448,192.649 333.448,192.483 332.5,192C 329.501,187.805 326.167,183.972 322.5,180.5C 321.675,179.614 320.675,179.281 319.5,179.5C 308.134,169.135 297.467,158.135 287.5,146.5C 283.421,140.408 279.255,134.408 275,128.5C 274.439,129.022 273.772,129.355 273,129.5C 271.7,128.293 270.2,127.626 268.5,127.5C 249.164,108.164 230.164,88.4971 211.5,68.5C 209.944,66.0118 207.611,65.0118 204.5,65.5C 202.36,65.5561 200.694,66.2227 199.5,67.5C 192.536,72.7967 186.202,78.7967 180.5,85.5C 178.5,86.1667 176.5,86.8333 174.5,87.5C 172.776,89.9138 171.442,92.5804 170.5,95.5C 167.985,96.2631 165.985,97.7631 164.5,100C 163.207,100.49 161.873,100.657 160.5,100.5C 160.5,101.833 160.5,103.167 160.5,104.5C 159.167,104.5 157.833,104.5 156.5,104.5C 155.217,107.01 154.217,109.677 153.5,112.5C 153.5,113.167 153.167,113.5 152.5,113.5C 149.86,114.445 147.194,114.612 144.5,114C 146.991,114.626 146.991,115.459 144.5,116.5C 145.428,117.768 145.595,119.101 145,120.5C 143.247,121.627 141.413,122.627 139.5,123.5C 138.552,126.423 137.219,129.089 135.5,131.5C 132.101,133.388 129.101,135.888 126.5,139C 121.312,139.884 118.979,143.05 119.5,148.5C 117.5,151.167 115.167,153.5 112.5,155.5C 109.45,154.923 107.45,156.09 106.5,159C 104.956,159.29 103.623,159.956 102.5,161C 103.236,164.199 102.403,164.365 100,161.5C 100.135,163.425 100.302,165.425 100.5,167.5C 98.2495,167.181 96.2495,167.681 94.5,169C 95.1667,169.333 95.8333,169.667 96.5,170C 93.262,170.232 90.762,171.732 89,174.5C 87.2875,178.256 85.4542,181.922 83.5,185.5C 81.5183,185.995 79.5183,186.495 77.5,187C 77.9574,187.414 78.2907,187.914 78.5,188.5C 76.6136,189.406 74.7803,190.406 73,191.5C 72.51,192.793 72.3433,194.127 72.5,195.5C 69.1134,195.862 67.4467,197.862 67.5,201.5C 64.8174,203.336 61.8174,204.336 58.5,204.5C 58.5,206.5 58.5,208.5 58.5,210.5C 57.1667,210.5 55.8333,210.5 54.5,210.5C 54.3259,212.861 53.9926,215.194 53.5,217.5C 52.5,218.167 51.5,218.833 50.5,219.5C 49.6778,222.665 49.0111,225.998 48.5,229.5C 49.6586,286.478 49.8253,343.478 49,400.5C 46.7589,404.451 47.2589,407.784 50.5,410.5C 49.6574,414.657 50.9908,417.657 54.5,419.5C 57.1395,422.806 60.1395,425.806 63.5,428.5C 63.3838,431.91 65.0504,433.244 68.5,432.5C 68.6107,433.117 68.944,433.617 69.5,434C 158.167,434.333 246.833,434.667 335.5,435C 343.645,437.003 348.479,442.17 350,450.5C 350.498,453.817 350.665,457.15 350.5,460.5C 348.281,461.828 346.948,463.828 346.5,466.5C 343.44,469.356 339.774,471.19 335.5,472C 248.167,472.667 160.833,472.667 73.5,472C 69.5577,471.007 65.5577,470.34 61.5,470C 63.5767,469.808 65.5767,469.308 67.5,468.5C 66.3333,468.167 65.1667,467.833 64,467.5C 59.1596,468.784 54.3263,468.784 49.5,467.5C 49.1667,467.5 48.8333,467.5 48.5,467.5C 47.1848,464.994 45.1848,463.161 42.5,462C 43.3081,461.692 43.9747,461.192 44.5,460.5C 40.9406,459.858 37.6073,458.691 34.5,457C 31.5949,454.647 29.5949,451.647 28.5,448C 25.8044,447.319 23.471,446.152 21.5,444.5C 18.9751,440.783 16.9751,436.783 15.5,432.5C 15.2053,428.772 14.5386,425.105 13.5,421.5C 12.5,353.837 12.1667,286.17 12.5,218.5C 13.8789,213.605 14.8789,208.605 15.5,203.5C 17.1448,198.206 19.8114,193.539 23.5,189.5C 29.941,184.398 35.2744,178.398 39.5,171.5C 48.1094,164.063 56.6094,156.396 65,148.5C 65.49,147.207 65.6567,145.873 65.5,144.5C 74.412,137.093 82.912,129.093 91,120.5C 91.4828,119.552 91.6495,118.552 91.5,117.5C 92.2389,117.631 92.9056,117.464 93.5,117C 100.428,110.577 106.762,103.744 112.5,96.5C 113.5,94.8333 114.833,93.5 116.5,92.5C 120.898,89.1053 124.564,85.1053 127.5,80.5C 128.5,78.8333 129.833,77.5 131.5,76.5C 136.607,72.5678 141.607,68.4012 146.5,64C 147.872,62.7581 148.872,61.2581 149.5,59.5C 150.325,58.6143 151.325,58.281 152.5,58.5C 153.043,55.9616 154.043,53.6282 155.5,51.5C 158.94,49.9451 162.273,48.1118 165.5,46C 166.123,42.5459 167.789,39.7126 170.5,37.5C 172.512,38.0138 174.512,38.1805 176.5,38C 178.779,35.9385 180.946,33.7719 183,31.5C 195.584,27.5229 208.417,26.5229 221.5,28.5 Z"/></g>
<g><path style="opacity:1" fill="#f7d7a8" d="M 221.5,28.5 C 227.691,30.2623 233.358,33.0956 238.5,37C 244.73,42.3006 250.397,48.1339 255.5,54.5C 251.003,53.4324 248.003,50.7657 246.5,46.5C 242.5,43.1667 238.5,39.8333 234.5,36.5C 229.968,34.0718 225.635,31.4051 221.5,28.5 Z"/></g>
<g><path style="opacity:1" fill="#f9d4a4" d="M 170.5,37.5 C 167.789,39.7126 166.123,42.5459 165.5,46C 162.273,48.1118 158.94,49.9451 155.5,51.5C 159.892,46.1057 164.892,41.439 170.5,37.5 Z"/></g>
<g><path style="opacity:1" fill="#fadaac" d="M 155.5,51.5 C 154.043,53.6282 153.043,55.9616 152.5,58.5C 151.325,58.281 150.325,58.6143 149.5,59.5C 148.872,61.2581 147.872,62.7581 146.5,64C 141.607,68.4012 136.607,72.5678 131.5,76.5C 139.279,67.9327 147.279,59.5994 155.5,51.5 Z"/></g>
<g><path style="opacity:0.943" fill="#f6d9b3" d="M 211.5,68.5 C 207.612,66.5241 203.612,66.1908 199.5,67.5C 200.694,66.2227 202.36,65.5561 204.5,65.5C 207.611,65.0118 209.944,66.0118 211.5,68.5 Z"/></g>
<g><path style="opacity:1" fill="#f7dbb1" d="M 261.5,60.5 C 272.139,71.4734 282.806,82.4734 293.5,93.5C 291.956,93.2969 290.622,92.6302 289.5,91.5C 286.987,87.6374 283.653,84.9708 279.5,83.5C 279.649,82.448 279.483,81.448 279,80.5C 275.754,76.638 272.087,73.3046 268,70.5C 265.367,67.369 263.201,64.0357 261.5,60.5 Z"/></g>
<g><path style="opacity:1" fill="#fbe1c2" d="M 180.5,85.5 C 177.5,89.1667 174.167,92.5 170.5,95.5C 171.442,92.5804 172.776,89.9138 174.5,87.5C 176.5,86.8333 178.5,86.1667 180.5,85.5 Z"/></g>
<g><path style="opacity:0.608" fill="#fde9ce" d="M 127.5,80.5 C 124.564,85.1053 120.898,89.1053 116.5,92.5C 119.436,87.8947 123.102,83.8947 127.5,80.5 Z"/></g>
<g><path style="opacity:0.729" fill="#fae7ca" d="M 293.5,93.5 C 295.5,94.8333 297.167,96.5 298.5,98.5C 295.5,98.1667 293.833,96.5 293.5,93.5 Z"/></g>
<g><path style="opacity:0.992" fill="#f9e0ba" d="M 298.5,98.5 C 308.139,108.473 317.806,118.473 327.5,128.5C 326.078,128.291 324.745,127.791 323.5,127C 317.198,119.697 310.532,112.697 303.5,106C 299.709,104.92 298.043,102.42 298.5,98.5 Z"/></g>
<g><path style="opacity:1" fill="#f9d5a7" d="M 170.5,95.5 C 165.167,101.5 159.5,107.167 153.5,112.5C 154.217,109.677 155.217,107.01 156.5,104.5C 157.833,104.5 159.167,104.5 160.5,104.5C 160.5,103.167 160.5,101.833 160.5,100.5C 161.873,100.657 163.207,100.49 164.5,100C 165.985,97.7631 167.985,96.2631 170.5,95.5 Z"/></g>
<g><path style="opacity:0.824" fill="#fbe1c1" d="M 112.5,96.5 C 106.762,103.744 100.428,110.577 93.5,117C 92.9056,117.464 92.2389,117.631 91.5,117.5C 98.1667,110.167 105.167,103.167 112.5,96.5 Z"/></g>
<g><path style="opacity:1" fill="#fcd8aa" d="M 152.5,113.5 C 147.559,120.11 141.892,126.11 135.5,131.5C 137.219,129.089 138.552,126.423 139.5,123.5C 141.413,122.627 143.247,121.627 145,120.5C 145.595,119.101 145.428,117.768 144.5,116.5C 146.991,115.459 146.991,114.626 144.5,114C 147.194,114.612 149.86,114.445 152.5,113.5 Z"/></g>
<g><path style="opacity:1" fill="#f9d7a7" d="M 268.5,127.5 C 270.2,127.626 271.7,128.293 273,129.5C 273.772,129.355 274.439,129.022 275,128.5C 279.255,134.408 283.421,140.408 287.5,146.5C 280.833,140.5 274.5,134.167 268.5,127.5 Z"/></g>
<g><path style="opacity:0.855" fill="#fae0bc" d="M 91.5,117.5 C 91.6495,118.552 91.4828,119.552 91,120.5C 82.912,129.093 74.412,137.093 65.5,144.5C 74.1942,135.473 82.8609,126.473 91.5,117.5 Z"/></g>
<g><path style="opacity:1" fill="#fbdaaf" d="M 135.5,131.5 C 130.139,137.193 124.805,142.86 119.5,148.5C 118.979,143.05 121.312,139.884 126.5,139C 129.101,135.888 132.101,133.388 135.5,131.5 Z"/></g>
<g><path style="opacity:0.925" fill="#fce6c9" d="M 341.5,143.5 C 348.225,149.223 354.225,155.556 359.5,162.5C 352.731,156.735 346.731,150.402 341.5,143.5 Z"/></g>
<g><path style="opacity:0.937" fill="#fadeba" d="M 65.5,144.5 C 65.6567,145.873 65.49,147.207 65,148.5C 56.6094,156.396 48.1094,164.063 39.5,171.5C 48.1942,162.473 56.8609,153.473 65.5,144.5 Z"/></g>
<g><path style="opacity:1" fill="#f9d5a4" d="M 112.5,155.5 C 108.833,159.833 104.833,163.833 100.5,167.5C 100.302,165.425 100.135,163.425 100,161.5C 102.403,164.365 103.236,164.199 102.5,161C 103.623,159.956 104.956,159.29 106.5,159C 107.45,156.09 109.45,154.923 112.5,155.5 Z"/></g>
<g><path style="opacity:1" fill="#fad6a8" d="M 100.5,167.5 C 95.287,173.924 89.6203,179.924 83.5,185.5C 85.4542,181.922 87.2875,178.256 89,174.5C 90.762,171.732 93.262,170.232 96.5,170C 95.8333,169.667 95.1667,169.333 94.5,169C 96.2495,167.681 98.2495,167.181 100.5,167.5 Z"/></g>
<g><path style="opacity:0.898" fill="#fde5c3" d="M 372.5,175.5 C 376.5,178.833 380.167,182.5 383.5,186.5C 378.833,183.833 375.167,180.167 372.5,175.5 Z"/></g>
<g><path style="opacity:0.933" fill="#f8deba" d="M 39.5,171.5 C 35.2744,178.398 29.941,184.398 23.5,189.5C 28.4685,183.197 33.8018,177.197 39.5,171.5 Z"/></g>
<g><path style="opacity:1" fill="#f9dcb4" d="M 319.5,179.5 C 320.675,179.281 321.675,179.614 322.5,180.5C 326.167,183.972 329.501,187.805 332.5,192C 333.448,192.483 334.448,192.649 335.5,192.5C 335.5,193.833 335.5,195.167 335.5,196.5C 329.462,191.463 324.129,185.797 319.5,179.5 Z"/></g>
<g><path style="opacity:1" fill="#f8d7a3" d="M 83.5,185.5 C 78.5,191.167 73.1667,196.5 67.5,201.5C 67.4467,197.862 69.1134,195.862 72.5,195.5C 72.3433,194.127 72.51,192.793 73,191.5C 74.7803,190.406 76.6136,189.406 78.5,188.5C 78.2907,187.914 77.9574,187.414 77.5,187C 79.5183,186.495 81.5183,185.995 83.5,185.5 Z"/></g>
<g><path style="opacity:1" fill="#fbd9ac" d="M 67.5,201.5 C 63.177,207.155 58.5103,212.488 53.5,217.5C 53.9926,215.194 54.3259,212.861 54.5,210.5C 55.8333,210.5 57.1667,210.5 58.5,210.5C 58.5,208.5 58.5,206.5 58.5,204.5C 61.8174,204.336 64.8174,203.336 67.5,201.5 Z"/></g>
<g><path style="opacity:0.965" fill="#fbdfbb" d="M 343.5,204.5 C 348.242,206.908 351.575,210.574 353.5,215.5C 350.195,211.859 346.862,208.192 343.5,204.5 Z"/></g>
<g><path style="opacity:1" fill="#f9d5a7" d="M 383.5,186.5 C 388.511,191.349 393.011,196.683 397,202.5C 399.658,210.275 398.492,217.275 393.5,223.5C 395.64,218.463 396.64,213.13 396.5,207.5C 395.5,207.5 394.5,207.5 393.5,207.5C 393.649,208.552 393.483,209.552 393,210.5C 392.691,209.234 392.191,208.067 391.5,207C 392.899,205.938 393.899,204.605 394.5,203C 392.915,201.075 391.748,198.909 391,196.5C 389.117,193.976 386.617,192.642 383.5,192.5C 383.5,190.5 383.5,188.5 383.5,186.5 Z"/></g>
<g><path style="opacity:1" fill="#f9cc91" d="M 12.5,218.5 C 12.1667,286.17 12.5,353.837 13.5,421.5C 14.5386,425.105 15.2053,428.772 15.5,432.5C 13.1837,428.206 11.8504,423.54 11.5,418.5C 11.1675,351.665 11.5008,284.998 12.5,218.5 Z"/></g>
<g><path style="opacity:0.938" fill="#f6dec1" d="M 15.5,203.5 C 14.8789,208.605 13.8789,213.605 12.5,218.5C 11.5008,284.998 11.1675,351.665 11.5,418.5C 10.6787,415.359 10.1787,412.025 10,408.5C 9.33333,347.833 9.33333,287.167 10,226.5C 10.2634,218.325 12.0968,210.658 15.5,203.5 Z"/></g>
<g><path style="opacity:0.988" fill="#f7d9af" d="M 359.5,221.5 C 361.366,222.014 363.2,222.68 365,223.5C 370.653,229.624 377.486,231.124 385.5,228C 387.887,225.905 390.553,224.405 393.5,223.5C 384.917,232.482 375.25,233.648 364.5,227C 362.627,225.296 360.96,223.463 359.5,221.5 Z"/></g>
<g><path style="opacity:0.573" fill="#fdddb5" d="M 53.5,217.5 C 53.313,219.564 52.813,221.564 52,223.5C 51.3333,286.167 51.3333,348.833 52,411.5C 52.561,414.279 53.3944,416.946 54.5,419.5C 50.9908,417.657 49.6574,414.657 50.5,410.5C 50.5,346.833 50.5,283.167 50.5,219.5C 51.5,218.833 52.5,218.167 53.5,217.5 Z"/></g>
<g><path style="opacity:1" fill="#f9cb91" d="M 50.5,219.5 C 50.5,283.167 50.5,346.833 50.5,410.5C 47.2589,407.784 46.7589,404.451 49,400.5C 49.8253,343.478 49.6586,286.478 48.5,229.5C 49.0111,225.998 49.6778,222.665 50.5,219.5 Z"/></g>
<g><path style="opacity:1" fill="#e79d75" d="M 294.5,266.5 C 292.461,265.089 291.461,263.089 291.5,260.5C 289.5,260.5 287.5,260.5 285.5,260.5C 287.225,259.095 289.225,258.595 291.5,259C 292.991,261.308 293.991,263.808 294.5,266.5 Z"/></g>
<g><path style="opacity:1" fill="#dc662f" d="M 407.5,259.5 C 407.81,261.144 408.81,262.144 410.5,262.5C 410.5,265.833 410.5,269.167 410.5,272.5C 409.527,272.013 408.527,271.513 407.5,271C 410.017,268.91 410.017,267.077 407.5,265.5C 407.167,264.5 406.5,263.833 405.5,263.5C 404.048,262.698 402.382,262.198 400.5,262C 399.402,261.23 399.402,260.397 400.5,259.5C 402.726,258.244 405.059,258.244 407.5,259.5 Z"/></g>
<g><path style="opacity:0.624" fill="#e4aa86" d="M 407.5,259.5 C 409.19,259.856 410.19,260.856 410.5,262.5C 408.81,262.144 407.81,261.144 407.5,259.5 Z"/></g>
<g><path style="opacity:0.612" fill="#f2b99d" d="M 285.5,260.5 C 284.699,262.042 284.366,263.708 284.5,265.5C 284.366,263.708 284.699,262.042 285.5,260.5 Z"/></g>
<g><path style="opacity:1" fill="#e18c63" d="M 219.5,262.5 C 222.167,264.167 222.167,265.833 219.5,267.5C 219.5,265.833 219.5,264.167 219.5,262.5 Z"/></g>
<g><path style="opacity:1" fill="#de8152" d="M 410.5,262.5 C 412.026,263.492 412.693,264.992 412.5,267C 412.607,269.221 411.94,271.054 410.5,272.5C 410.5,269.167 410.5,265.833 410.5,262.5 Z"/></g>
<g><path style="opacity:0.957" fill="#e19971" d="M 349.5,272.5 C 349.5,270.167 349.5,267.833 349.5,265.5C 347.801,265.34 346.134,265.506 344.5,266C 343.391,267.876 342.391,269.709 341.5,271.5C 341.008,263.51 344.174,261.51 351,265.5C 351.275,268.058 350.775,270.392 349.5,272.5 Z"/></g>
<g><path style="opacity:1" fill="#e1845a" d="M 211.5,263.5 C 210.833,266.833 208.833,268.833 205.5,269.5C 207.167,267.167 209.167,265.167 211.5,263.5 Z"/></g>
<g><path style="opacity:1" fill="#dc804c" d="M 400.5,259.5 C 399.402,260.397 399.402,261.23 400.5,262C 402.382,262.198 404.048,262.698 405.5,263.5C 400.44,263.629 398.94,265.962 401,270.5C 404.451,272.17 406.951,271.17 408.5,267.5C 408.137,266.817 407.804,266.15 407.5,265.5C 410.017,267.077 410.017,268.91 407.5,271C 408.527,271.513 409.527,272.013 410.5,272.5C 407.405,276.787 403.739,277.454 399.5,274.5C 399.027,273.094 398.027,272.427 396.5,272.5C 396.5,272.167 396.5,271.833 396.5,271.5C 394.735,270.539 392.735,270.205 390.5,270.5C 390.5,275.167 390.5,279.833 390.5,284.5C 389.513,279.695 389.179,274.695 389.5,269.5C 392.448,269.223 395.281,269.556 398,270.5C 398.74,267.824 399.073,265.158 399,262.5C 397.916,263.665 397.083,264.998 396.5,266.5C 384.833,267.167 373.167,267.833 361.5,268.5C 368.803,269.497 376.137,269.831 383.5,269.5C 383.821,274.695 383.487,279.695 382.5,284.5C 382.5,279.833 382.5,275.167 382.5,270.5C 375.167,270.5 367.833,270.5 360.5,270.5C 359.088,268.77 359.422,267.27 361.5,266C 372.848,265.832 384.181,265.332 395.5,264.5C 396.212,261.788 397.879,260.121 400.5,259.5 Z"/></g>
<g><path style="opacity:1" fill="#e07139" d="M 219.5,262.5 C 219.5,264.167 219.5,265.833 219.5,267.5C 216.064,271.057 212.397,274.391 208.5,277.5C 208.302,275.425 208.135,273.425 208,271.5C 209.626,271.854 211.459,271.854 213.5,271.5C 215.275,269.463 216.608,266.796 217.5,263.5C 215.599,262.769 213.599,262.769 211.5,263.5C 213.844,258.809 216.511,258.475 219.5,262.5 Z"/></g>
<g><path style="opacity:0.733" fill="#f0bb98" d="M 396.5,272.5 C 398.027,272.427 399.027,273.094 399.5,274.5C 397.973,274.573 396.973,273.906 396.5,272.5 Z"/></g>
<g><path style="opacity:0.982" fill="#ce652e" d="M 111.5,262.5 C 112.482,265.962 112.815,269.629 112.5,273.5C 122.167,273.5 131.833,273.5 141.5,273.5C 141.5,274.833 141.5,276.167 141.5,277.5C 132.167,277.5 122.833,277.5 113.5,277.5C 122.342,276.833 131.342,276.167 140.5,275.5C 130.856,274.502 121.19,274.168 111.5,274.5C 111.5,270.5 111.5,266.5 111.5,262.5 Z"/></g>
<g><path style="opacity:0.867" fill="#db7e4a" d="M 294.5,266.5 C 295.578,268.539 296.578,270.706 297.5,273C 304.826,273.5 312.159,273.666 319.5,273.5C 319.768,275.099 319.434,276.432 318.5,277.5C 318.5,276.5 318.5,275.5 318.5,274.5C 311.159,274.666 303.826,274.5 296.5,274C 295.133,271.699 294.466,269.199 294.5,266.5 Z"/></g>
<g><path style="opacity:0.78" fill="#db9d79" d="M 457.5,281.5 C 458.069,277.671 457.402,274.337 455.5,271.5C 456.122,270.373 456.955,269.373 458,268.5C 458.814,273.02 458.647,277.354 457.5,281.5 Z"/></g>
<g><path style="opacity:0.016" fill="#ffe9af" d="M 360.5,270.5 C 367.833,270.5 375.167,270.5 382.5,270.5C 382.5,275.167 382.5,279.833 382.5,284.5C 382.167,284.5 381.833,284.5 381.5,284.5C 381.5,280.167 381.5,275.833 381.5,271.5C 374.313,271.825 367.313,271.491 360.5,270.5 Z"/></g>
<g><path style="opacity:0.365" fill="#f8c1a4" d="M 141.5,273.5 C 143.599,274.37 143.932,275.703 142.5,277.5C 132.522,278.499 122.522,278.832 112.5,278.5C 112.5,282.833 112.5,287.167 112.5,291.5C 112.167,291.5 111.833,291.5 111.5,291.5C 110.897,286.381 111.564,281.715 113.5,277.5C 122.833,277.5 132.167,277.5 141.5,277.5C 141.5,276.167 141.5,274.833 141.5,273.5 Z"/></g>
<g><path style="opacity:0.53" fill="#eaab86" d="M 260.5,273.5 C 259.766,274.708 259.433,276.041 259.5,277.5C 269.681,277.173 279.681,277.506 289.5,278.5C 279.167,278.5 268.833,278.5 258.5,278.5C 258.077,276.219 258.744,274.552 260.5,273.5 Z"/></g>
<g><path style="opacity:0.6" fill="#ec9f7a" d="M 214.5,278.5 C 215.919,277.549 217.585,277.216 219.5,277.5C 219.818,282.032 219.485,286.366 218.5,290.5C 218.5,286.5 218.5,282.5 218.5,278.5C 217.167,278.5 215.833,278.5 214.5,278.5 Z"/></g>
<g><path style="opacity:0.312" fill="#ffc49b" d="M 396.5,271.5 C 394.833,271.5 393.167,271.5 391.5,271.5C 391.5,275.833 391.5,280.167 391.5,284.5C 391.167,284.5 390.833,284.5 390.5,284.5C 390.5,279.833 390.5,275.167 390.5,270.5C 392.735,270.205 394.735,270.539 396.5,271.5 Z"/></g>
<g><path style="opacity:0.055" fill="#fedfca" d="M 93.5,277.5 C 96.8333,277.5 100.167,277.5 103.5,277.5C 103.5,282.167 103.5,286.833 103.5,291.5C 103.167,291.5 102.833,291.5 102.5,291.5C 102.5,287.167 102.5,282.833 102.5,278.5C 99.2869,278.81 96.2869,278.477 93.5,277.5 Z"/></g>
<g><path style="opacity:1" fill="#e05c1a" d="M 208.5,277.5 C 207.71,278.401 206.71,279.068 205.5,279.5C 201.615,278.354 199.615,280.021 199.5,284.5C 197.549,284.773 196.049,284.107 195,282.5C 193.872,284.345 193.372,286.345 193.5,288.5C 192.167,288.5 190.833,288.5 189.5,288.5C 190.644,292.648 190.644,296.648 189.5,300.5C 187.116,299.575 186.116,297.742 186.5,295C 187.074,291.688 188.074,288.522 189.5,285.5C 194.5,279.833 199.833,274.5 205.5,269.5C 208.833,268.833 210.833,266.833 211.5,263.5C 213.599,262.769 215.599,262.769 217.5,263.5C 216.608,266.796 215.275,269.463 213.5,271.5C 211.459,271.854 209.626,271.854 208,271.5C 208.135,273.425 208.302,275.425 208.5,277.5 Z"/></g>
<g><path style="opacity:0.792" fill="#e5a07e" d="M 291.5,282.5 C 293.213,283.635 293.88,285.302 293.5,287.5C 292.463,286.07 291.796,284.403 291.5,282.5 Z"/></g>
<g><path style="opacity:0.892" fill="#c9784d" d="M 381.5,284.5 C 374.687,285.491 367.687,285.825 360.5,285.5C 360.5,286.5 360.5,287.5 360.5,288.5C 359.566,287.432 359.232,286.099 359.5,284.5C 366.833,284.5 374.167,284.5 381.5,284.5 Z"/></g>
<g><path style="opacity:0.871" fill="#d0895e" d="M 390.5,284.5 C 390.833,284.5 391.167,284.5 391.5,284.5C 395.846,284.334 400.179,284.501 404.5,285C 405.791,286.292 405.791,287.458 404.5,288.5C 404.167,288.5 403.833,288.5 403.5,288.5C 403.5,287.5 403.5,286.5 403.5,285.5C 398.968,285.818 394.634,285.485 390.5,284.5 Z"/></g>
<g><path style="opacity:1" fill="#dd7038" d="M 214.5,278.5 C 215.833,278.5 217.167,278.5 218.5,278.5C 218.5,282.5 218.5,286.5 218.5,290.5C 217.116,291.801 215.616,291.801 214,290.5C 213.188,286.311 213.355,282.311 214.5,278.5 Z"/></g>
<g><path style="opacity:1" fill="#d58b5b" d="M 221.5,277.5 C 226.491,277.114 228.491,279.448 227.5,284.5C 228.491,289.552 226.491,291.886 221.5,291.5C 221.5,286.833 221.5,282.167 221.5,277.5 Z"/></g>
<g><path style="opacity:1" fill="#dc560b" d="M 222.5,278.5 C 223.5,278.5 224.5,278.5 225.5,278.5C 225.5,282.167 225.5,285.833 225.5,289.5C 224.5,289.5 223.5,289.5 222.5,289.5C 222.5,285.833 222.5,282.167 222.5,278.5 Z"/></g>
<g><path style="opacity:1" fill="#d97842" d="M 299.5,279.5 C 301.346,282.54 302.679,285.873 303.5,289.5C 300.569,286.987 299.235,283.653 299.5,279.5 Z"/></g>
<g><path style="opacity:1" fill="#e18555" d="M 448.5,286.5 C 448.655,289.716 447.655,292.383 445.5,294.5C 446.129,291.603 447.129,288.936 448.5,286.5 Z"/></g>
<g><path style="opacity:0.737" fill="#e7a880" d="M 347.5,284.5 C 347.066,289.668 346.4,294.668 345.5,299.5C 345.334,295.486 345.501,291.486 346,287.5C 346.232,286.263 346.732,285.263 347.5,284.5 Z"/></g>
<g><path style="opacity:1" fill="#e35305" d="M 106.5,318.5 C 105.024,310.8 104.024,303.133 103.5,295.5C 100.359,294.679 97.0252,294.179 93.5,294C 97.1516,293.501 100.818,293.335 104.5,293.5C 104.334,289.486 104.501,285.486 105,281.5C 105.333,282.167 105.667,282.833 106,283.5C 107.356,282.62 108.856,282.286 110.5,282.5C 110.5,286.167 110.5,289.833 110.5,293.5C 149.167,293.833 149.167,294.167 110.5,294.5C 110.334,301.841 110.5,309.174 111,316.5C 112.44,317.93 112.774,319.597 112,321.5C 110.625,319.624 109.458,317.624 108.5,315.5C 107.824,316.602 107.158,317.602 106.5,318.5 Z"/></g>
<g><path style="opacity:0.973" fill="#e28f5f" d="M 293.5,287.5 C 296.431,290.013 297.765,293.347 297.5,297.5C 295.654,294.46 294.321,291.127 293.5,287.5 Z"/></g>
<g><path style="opacity:1" fill="#df682c" d="M 455.5,271.5 C 457.402,274.337 458.069,277.671 457.5,281.5C 456.255,291.792 455.589,302.125 455.5,312.5C 454.449,300.157 454.449,287.823 455.5,275.5C 453.577,278.574 451.91,281.741 450.5,285C 451.355,287.702 451.689,290.369 451.5,293C 450.576,294.811 449.743,294.645 449,292.5C 447.541,294.432 446.375,296.432 445.5,298.5C 445.5,297.5 445.5,296.5 445.5,295.5C 445.5,295.167 445.5,294.833 445.5,294.5C 447.655,292.383 448.655,289.716 448.5,286.5C 449.119,280.615 451.453,275.615 455.5,271.5 Z"/></g>
<g><path style="opacity:0.322" fill="#febf98" d="M 403.5,288.5 C 403.833,288.5 404.167,288.5 404.5,288.5C 400.366,289.485 396.032,289.818 391.5,289.5C 391.5,296.5 391.5,303.5 391.5,310.5C 390.508,303.352 390.175,296.019 390.5,288.5C 394.833,288.5 399.167,288.5 403.5,288.5 Z"/></g>
<g><path style="opacity:0.682" fill="#e39970" d="M 111.5,291.5 C 111.833,291.5 112.167,291.5 112.5,291.5C 122.172,291.334 131.839,291.5 141.5,292C 142.833,293.333 142.833,294.667 141.5,296C 131.839,296.5 122.172,296.666 112.5,296.5C 112.5,301.5 112.5,306.5 112.5,311.5C 111.512,306.36 111.179,301.026 111.5,295.5C 121.167,295.5 130.833,295.5 140.5,295.5C 140.5,294.5 140.5,293.5 140.5,292.5C 130.652,292.827 120.986,292.494 111.5,291.5 Z"/></g>
<g><path style="opacity:1" fill="#dc8051" d="M 189.5,285.5 C 188.074,288.522 187.074,291.688 186.5,295C 186.116,297.742 187.116,299.575 189.5,300.5C 189.733,302.062 190.4,303.395 191.5,304.5C 182.207,299.013 181.54,292.679 189.5,285.5 Z"/></g>
<g><path style="opacity:0.686" fill="#e6a482" d="M 287.5,297.5 C 282.13,297.392 276.797,297.725 271.5,298.5C 274.356,296.994 277.523,296.328 281,296.5C 283.361,296.504 285.527,296.837 287.5,297.5 Z"/></g>
<g><path style="opacity:1" fill="#db783f" d="M 303.5,289.5 C 305.204,292.256 306.537,295.256 307.5,298.5C 306.504,298.586 305.671,298.252 305,297.5C 304.178,294.883 303.678,292.216 303.5,289.5 Z"/></g>
<g><path style="opacity:1" fill="#e05813" d="M 390.5,284.5 C 394.634,285.485 398.968,285.818 403.5,285.5C 403.5,286.5 403.5,287.5 403.5,288.5C 399.167,288.5 394.833,288.5 390.5,288.5C 390.175,296.019 390.508,303.352 391.5,310.5C 392.167,310.5 392.5,310.833 392.5,311.5C 394.419,313.246 396.586,314.913 399,316.5C 400.44,317.148 401.94,317.481 403.5,317.5C 403.5,319.167 403.5,320.833 403.5,322.5C 401.833,322.5 400.167,322.5 398.5,322.5C 398.027,321.094 397.027,320.427 395.5,320.5C 394.294,317.861 392.294,317.028 389.5,318C 388.62,319.356 388.286,320.856 388.5,322.5C 388.672,323.492 388.338,324.158 387.5,324.5C 385.958,323.699 384.292,323.366 382.5,323.5C 382.5,324.5 382.5,325.5 382.5,326.5C 376.174,327.779 369.841,327.779 363.5,326.5C 360.885,323.023 359.885,319.023 360.5,314.5C 360.5,313.833 360.833,313.5 361.5,313.5C 362.858,312.374 364.192,312.374 365.5,313.5C 362.577,320.755 365.077,324.422 373,324.5C 375.675,324.343 377.841,323.343 379.5,321.5C 382.671,319.481 384.004,316.481 383.5,312.5C 378.84,311.833 374.174,311.667 369.5,312C 368.944,312.383 368.611,312.883 368.5,313.5C 367.691,312.531 366.691,311.698 365.5,311C 366.167,310.667 366.833,310.333 367.5,310C 372.684,309.826 377.684,309.326 382.5,308.5C 382.5,302.167 382.5,295.833 382.5,289.5C 374.981,289.825 367.648,289.492 360.5,288.5C 360.5,287.5 360.5,286.5 360.5,285.5C 367.687,285.825 374.687,285.491 381.5,284.5C 381.833,284.5 382.167,284.5 382.5,284.5C 383.487,279.695 383.821,274.695 383.5,269.5C 376.137,269.831 368.803,269.497 361.5,268.5C 373.167,267.833 384.833,267.167 396.5,266.5C 397.083,264.998 397.916,263.665 399,262.5C 399.073,265.158 398.74,267.824 398,270.5C 395.281,269.556 392.448,269.223 389.5,269.5C 389.179,274.695 389.513,279.695 390.5,284.5 Z M 379.5,321.5 C 373.681,324.749 369.014,323.583 365.5,318C 366.386,316.385 367.386,314.885 368.5,313.5C 373.347,311.965 377.681,312.798 381.5,316C 380.923,317.9 380.256,319.733 379.5,321.5 Z"/></g>
<g><path style="opacity:1" fill="#db8f63" d="M 339.5,283.5 C 339.279,295.193 339.612,306.86 340.5,318.5C 336.982,306.919 336.649,295.253 339.5,283.5 Z"/></g>
<g><path style="opacity:1" fill="#df5e1c" d="M 285.5,260.5 C 287.5,260.5 289.5,260.5 291.5,260.5C 291.461,263.089 292.461,265.089 294.5,266.5C 294.466,269.199 295.133,271.699 296.5,274C 303.826,274.5 311.159,274.666 318.5,274.5C 318.5,275.5 318.5,276.5 318.5,277.5C 312.167,278.167 305.833,278.833 299.5,279.5C 299.235,283.653 300.569,286.987 303.5,289.5C 303.678,292.216 304.178,294.883 305,297.5C 305.671,298.252 306.504,298.586 307.5,298.5C 307.833,301.167 308.167,303.833 308.5,306.5C 307.504,307.665 306.171,308.332 304.5,308.5C 300.243,307.2 296.243,305.533 292.5,303.5C 289.814,302.009 286.814,301.343 283.5,301.5C 281.304,301.505 279.304,301.838 277.5,302.5C 276.4,303.558 275.066,304.392 273.5,305C 272.601,306.652 271.601,308.152 270.5,309.5C 269.853,310.274 269.52,311.274 269.5,312.5C 269.34,314.355 270.007,315.688 271.5,316.5C 271.5,318.5 272.5,319.5 274.5,319.5C 275.833,320.167 277.167,320.833 278.5,321.5C 279.167,322.167 279.833,322.833 280.5,323.5C 284.702,323.817 288.702,323.483 292.5,322.5C 294.167,322.5 295.833,322.5 297.5,322.5C 299.833,322.5 302.167,322.5 304.5,322.5C 304.702,324.95 304.369,327.283 303.5,329.5C 296.123,330.764 288.79,330.764 281.5,329.5C 279.485,328.076 277.152,327.41 274.5,327.5C 272.847,327.34 271.514,326.674 270.5,325.5C 269.415,323.413 267.749,322.08 265.5,321.5C 264.601,318.4 263.934,315.233 263.5,312C 264.418,309.239 265.084,306.406 265.5,303.5C 267.167,302.5 268.5,301.167 269.5,299.5C 269.842,298.662 270.508,298.328 271.5,298.5C 276.797,297.725 282.13,297.392 287.5,297.5C 288.167,297.5 288.833,297.5 289.5,297.5C 292.206,300.354 295.539,301.521 299.5,301C 298.915,299.698 298.249,298.531 297.5,297.5C 297.765,293.347 296.431,290.013 293.5,287.5C 293.88,285.302 293.213,283.635 291.5,282.5C 290.655,281.329 289.989,279.995 289.5,278.5C 279.681,277.506 269.681,277.173 259.5,277.5C 259.433,276.041 259.766,274.708 260.5,273.5C 269.506,273.666 278.506,273.5 287.5,273C 286.358,270.55 285.358,268.05 284.5,265.5C 284.366,263.708 284.699,262.042 285.5,260.5 Z"/></g>
<g><path style="opacity:1" fill="#e09970" d="M 353.5,303.5 C 353.5,302.5 353.5,301.5 353.5,300.5C 351.486,300.392 349.82,301.058 348.5,302.5C 349.109,299.034 350.942,298.034 354,299.5C 354.765,301.066 354.598,302.399 353.5,303.5 Z"/></g>
<g><path style="opacity:1" fill="#df682b" d="M 205.5,279.5 C 201.503,284.33 197.003,288.664 192,292.5C 191.333,293.833 191.333,295.167 192,296.5C 193.667,297.733 195.167,299.067 196.5,300.5C 197.035,302.446 198.368,303.446 200.5,303.5C 201.035,305.446 202.368,306.446 204.5,306.5C 207.432,307.8 209.766,309.8 211.5,312.5C 208.006,310.839 204.506,309.172 201,307.5C 200.167,307.667 199.333,307.833 198.5,308C 200.174,309.506 201.174,311.339 201.5,313.5C 199.833,312.5 198.5,311.167 197.5,309.5C 196.089,307.086 194.089,305.419 191.5,304.5C 190.4,303.395 189.733,302.062 189.5,300.5C 190.644,296.648 190.644,292.648 189.5,288.5C 190.833,288.5 192.167,288.5 193.5,288.5C 193.372,286.345 193.872,284.345 195,282.5C 196.049,284.107 197.549,284.773 199.5,284.5C 199.615,280.021 201.615,278.354 205.5,279.5 Z"/></g>
<g><path style="opacity:0.718" fill="#e6ab88" d="M 269.5,299.5 C 268.5,301.167 267.167,302.5 265.5,303.5C 265.833,301.167 267.167,299.833 269.5,299.5 Z"/></g>
<g><path style="opacity:1" fill="#e48f59" d="M 289.5,297.5 C 291.787,297.724 293.953,298.391 296,299.5C 297.03,299.164 297.53,298.497 297.5,297.5C 298.249,298.531 298.915,299.698 299.5,301C 295.539,301.521 292.206,300.354 289.5,297.5 Z"/></g>
<g><path style="opacity:0.38" fill="#f2b58d" d="M 277.5,302.5 C 279.304,301.838 281.304,301.505 283.5,301.5C 286.814,301.343 289.814,302.009 292.5,303.5C 287.537,302.746 282.537,302.413 277.5,302.5 Z"/></g>
<g><path style="opacity:1" fill="#dd743c" d="M 353.5,303.5 C 352.871,306.397 351.871,309.064 350.5,311.5C 352.715,300.692 351.382,300.026 346.5,309.5C 345.702,309.043 345.369,308.376 345.5,307.5C 346.687,305.928 347.687,304.261 348.5,302.5C 349.82,301.058 351.486,300.392 353.5,300.5C 353.5,301.5 353.5,302.5 353.5,303.5 Z"/></g>
<g><path style="opacity:1" fill="#e08f62" d="M 149.5,310.5 C 150.321,307.446 150.321,304.446 149.5,301.5C 148.16,302.867 146.827,304.2 145.5,305.5C 145.364,300.446 147.531,298.78 152,300.5C 152.275,304.162 151.442,307.496 149.5,310.5 Z"/></g>
<g><path style="opacity:0.769" fill="#e7ac87" d="M 196.5,300.5 C 198.23,301.026 199.564,302.026 200.5,303.5C 198.368,303.446 197.035,302.446 196.5,300.5 Z"/></g>
<g><path style="opacity:1" fill="#e49672" d="M 307.5,298.5 C 308.86,300.046 309.86,301.88 310.5,304C 310.361,305.301 309.695,306.134 308.5,306.5C 308.167,303.833 307.833,301.167 307.5,298.5 Z"/></g>
<g><path style="opacity:1" fill="#d57b41" d="M 445.5,295.5 C 445.5,296.5 445.5,297.5 445.5,298.5C 444.815,300.414 444.315,302.414 444,304.5C 443.623,305.942 442.79,306.942 441.5,307.5C 442.542,303.303 443.875,299.303 445.5,295.5 Z"/></g>
<g><path style="opacity:0.922" fill="#de8352" d="M 102.5,291.5 C 102.833,291.5 103.167,291.5 103.5,291.5C 100.038,292.482 96.3714,292.815 92.5,292.5C 92.5,293.5 92.5,294.5 92.5,295.5C 96.1667,295.5 99.8333,295.5 103.5,295.5C 104.024,303.133 105.024,310.8 106.5,318.5C 106.5,319.5 106.5,320.5 106.5,321.5C 105.4,319.723 104.566,317.723 104,315.5C 103.667,309.5 103.333,303.5 103,297.5C 99.2546,296.703 95.4213,296.203 91.5,296C 90.1667,294.667 90.1667,293.333 91.5,292C 95.1516,291.501 98.8183,291.335 102.5,291.5 Z"/></g>
<g><path style="opacity:0.961" fill="#eda883" d="M 191.5,304.5 C 194.089,305.419 196.089,307.086 197.5,309.5C 194.911,308.581 192.911,306.914 191.5,304.5 Z"/></g>
<g><path style="opacity:1" fill="#eca783" d="M 200.5,303.5 C 202.23,304.026 203.564,305.026 204.5,306.5C 202.368,306.446 201.035,305.446 200.5,303.5 Z"/></g>
<g><path style="opacity:1" fill="#e25810" d="M 349.5,272.5 C 349.218,276.574 348.552,280.574 347.5,284.5C 346.732,285.263 346.232,286.263 346,287.5C 345.501,291.486 345.334,295.486 345.5,299.5C 345.5,302.167 345.5,304.833 345.5,307.5C 345.369,308.376 345.702,309.043 346.5,309.5C 351.382,300.026 352.715,300.692 350.5,311.5C 348.564,315.715 347.897,320.381 348.5,325.5C 347.127,325.657 345.793,325.49 344.5,325C 343.603,322.689 342.27,320.856 340.5,319.5C 340.5,319.167 340.5,318.833 340.5,318.5C 339.612,306.86 339.279,295.193 339.5,283.5C 339.529,279.36 340.196,275.36 341.5,271.5C 342.391,269.709 343.391,267.876 344.5,266C 346.134,265.506 347.801,265.34 349.5,265.5C 349.5,267.833 349.5,270.167 349.5,272.5 Z"/></g>
<g><path style="opacity:0.98" fill="#d78559" d="M 265.5,303.5 C 265.084,306.406 264.418,309.239 263.5,312C 263.934,315.233 264.601,318.4 265.5,321.5C 261.657,317.102 260.824,312.102 263,306.5C 263.377,305.058 264.21,304.058 265.5,303.5 Z"/></g>
<g><path style="opacity:1" fill="#e2814c" d="M 382.5,308.5 C 377.684,309.326 372.684,309.826 367.5,310C 366.833,310.333 366.167,310.667 365.5,311C 366.691,311.698 367.691,312.531 368.5,313.5C 367.386,314.885 366.386,316.385 365.5,318C 369.014,323.583 373.681,324.749 379.5,321.5C 377.841,323.343 375.675,324.343 373,324.5C 365.077,324.422 362.577,320.755 365.5,313.5C 364.192,312.374 362.858,312.374 361.5,313.5C 361.5,312.833 361.5,312.167 361.5,311.5C 363.09,309.766 365.09,308.6 367.5,308C 372.552,307.274 377.552,307.441 382.5,308.5 Z"/></g>
<g><path style="opacity:0.624" fill="#e29d74" d="M 270.5,309.5 C 270.448,311.903 270.781,314.236 271.5,316.5C 270.007,315.688 269.34,314.355 269.5,312.5C 269.52,311.274 269.853,310.274 270.5,309.5 Z"/></g>
<g><path style="opacity:0.463" fill="#f2c29c" d="M 361.5,311.5 C 361.5,312.167 361.5,312.833 361.5,313.5C 360.833,313.5 360.5,313.833 360.5,314.5C 360.167,314.5 359.833,314.5 359.5,314.5C 359.427,312.973 360.094,311.973 361.5,311.5 Z"/></g>
<g><path style="opacity:1" fill="#e2570f" d="M 211.5,312.5 C 212.167,312.833 212.833,313.167 213.5,313.5C 213.525,316.179 214.858,317.512 217.5,317.5C 217.525,320.179 218.858,321.512 221.5,321.5C 222.5,321.833 223.167,322.5 223.5,323.5C 223.5,325.5 223.5,327.5 223.5,329.5C 223.5,330.167 223.167,330.5 222.5,330.5C 220.097,330.552 217.764,330.219 215.5,329.5C 214.5,328.167 213.5,326.833 212.5,325.5C 211.95,321.283 209.617,318.616 205.5,317.5C 203.833,316.5 202.5,315.167 201.5,313.5C 201.174,311.339 200.174,309.506 198.5,308C 199.333,307.833 200.167,307.667 201,307.5C 204.506,309.172 208.006,310.839 211.5,312.5 Z"/></g>
<g><path style="opacity:1" fill="#dd7944" d="M 379.5,321.5 C 380.256,319.733 380.923,317.9 381.5,316C 377.681,312.798 373.347,311.965 368.5,313.5C 368.611,312.883 368.944,312.383 369.5,312C 374.174,311.667 378.84,311.833 383.5,312.5C 384.004,316.481 382.671,319.481 379.5,321.5 Z"/></g>
<g><path style="opacity:1" fill="#db7642" d="M 392.5,311.5 C 396.362,312.428 400.029,313.928 403.5,316C 406.134,318.293 406.134,320.46 403.5,322.5C 403.5,320.833 403.5,319.167 403.5,317.5C 401.94,317.481 400.44,317.148 399,316.5C 396.586,314.913 394.419,313.246 392.5,311.5 Z"/></g>
<g><path style="opacity:1" fill="#e0966c" d="M 213.5,313.5 C 215.167,314.5 216.5,315.833 217.5,317.5C 214.858,317.512 213.525,316.179 213.5,313.5 Z"/></g>
<g><path style="opacity:0.722" fill="#f0ba88" d="M 271.5,316.5 C 272.833,317.167 273.833,318.167 274.5,319.5C 272.5,319.5 271.5,318.5 271.5,316.5 Z"/></g>
<g><path style="opacity:1" fill="#d67f4c" d="M 359.5,314.5 C 359.833,314.5 360.167,314.5 360.5,314.5C 359.885,319.023 360.885,323.023 363.5,326.5C 361.248,326.084 359.748,324.751 359,322.5C 358.199,319.633 358.366,316.966 359.5,314.5 Z"/></g>
<g><path style="opacity:1" fill="#e27f4a" d="M 147.5,314.5 C 145.223,319.777 141.556,323.777 136.5,326.5C 137.359,324.894 137.526,323.227 137,321.5C 138.011,322.337 139.178,322.67 140.5,322.5C 140.34,320.801 140.506,319.134 141,317.5C 141.414,317.957 141.914,318.291 142.5,318.5C 143.611,316.448 145.277,315.114 147.5,314.5 Z"/></g>
<g><path style="opacity:0.863" fill="#e89c72" d="M 395.5,320.5 C 393.956,320.297 392.622,319.63 391.5,318.5C 390.479,319.901 389.479,321.235 388.5,322.5C 388.286,320.856 388.62,319.356 389.5,318C 392.294,317.028 394.294,317.861 395.5,320.5 Z"/></g>
<g><path style="opacity:1" fill="#e38b62" d="M 217.5,317.5 C 219.167,318.5 220.5,319.833 221.5,321.5C 218.858,321.512 217.525,320.179 217.5,317.5 Z"/></g>
<g><path style="opacity:0.992" fill="#df9871" d="M 265.5,321.5 C 267.749,322.08 269.415,323.413 270.5,325.5C 268.251,324.92 266.585,323.587 265.5,321.5 Z"/></g>
<g><path style="opacity:0.576" fill="#efa981" d="M 297.5,322.5 C 299.948,321.527 302.615,321.194 305.5,321.5C 306.036,324.698 305.369,327.365 303.5,329.5C 304.369,327.283 304.702,324.95 304.5,322.5C 302.167,322.5 299.833,322.5 297.5,322.5 Z"/></g>
<g><path style="opacity:0.612" fill="#eaa87d" d="M 395.5,320.5 C 397.027,320.427 398.027,321.094 398.5,322.5C 396.973,322.573 395.973,321.906 395.5,320.5 Z"/></g>
<g><path style="opacity:0.776" fill="#e08958" d="M 441.5,308.5 C 441.473,314.051 440.806,319.384 439.5,324.5C 439.255,318.916 439.922,313.583 441.5,308.5 Z"/></g>
<g><path style="opacity:1" fill="#dd7341" d="M 106.5,321.5 C 109.938,322.693 112.271,325.026 113.5,328.5C 110.189,327.189 107.855,324.855 106.5,321.5 Z"/></g>
<g><path style="opacity:1" fill="#da7943" d="M 205.5,317.5 C 209.617,318.616 211.95,321.283 212.5,325.5C 209.705,323.249 207.372,320.582 205.5,317.5 Z"/></g>
<g><path style="opacity:0.294" fill="#f2b893" d="M 278.5,321.5 C 283.119,322.314 287.786,322.647 292.5,322.5C 288.702,323.483 284.702,323.817 280.5,323.5C 279.833,322.833 279.167,322.167 278.5,321.5 Z"/></g>
<g><path style="opacity:1" fill="#de8c67" d="M 398.5,322.5 C 400.167,322.5 401.833,322.5 403.5,322.5C 401.833,325.167 400.167,325.167 398.5,322.5 Z"/></g>
<g><path style="opacity:1" fill="#df5b16" d="M 111.5,262.5 C 111.5,266.5 111.5,270.5 111.5,274.5C 121.19,274.168 130.856,274.502 140.5,275.5C 131.342,276.167 122.342,276.833 113.5,277.5C 111.564,281.715 110.897,286.381 111.5,291.5C 120.986,292.494 130.652,292.827 140.5,292.5C 140.5,293.5 140.5,294.5 140.5,295.5C 130.833,295.5 121.167,295.5 111.5,295.5C 111.179,301.026 111.512,306.36 112.5,311.5C 113.345,314.543 114.345,317.543 115.5,320.5C 115.539,321.583 115.873,322.583 116.5,323.5C 120.315,324.808 123.981,324.808 127.5,323.5C 129.05,322.559 130.716,321.893 132.5,321.5C 134.027,321.573 135.027,320.906 135.5,319.5C 137.167,317.167 139.167,315.167 141.5,313.5C 144.058,311.566 145.391,308.899 145.5,305.5C 146.827,304.2 148.16,302.867 149.5,301.5C 150.321,304.446 150.321,307.446 149.5,310.5C 149.34,312.153 148.674,313.486 147.5,314.5C 145.277,315.114 143.611,316.448 142.5,318.5C 141.914,318.291 141.414,317.957 141,317.5C 140.506,319.134 140.34,320.801 140.5,322.5C 139.178,322.67 138.011,322.337 137,321.5C 137.526,323.227 137.359,324.894 136.5,326.5C 136.027,327.906 135.027,328.573 133.5,328.5C 126.823,329.702 120.157,329.702 113.5,328.5C 112.271,325.026 109.938,322.693 106.5,321.5C 106.5,320.5 106.5,319.5 106.5,318.5C 107.158,317.602 107.824,316.602 108.5,315.5C 109.458,317.624 110.625,319.624 112,321.5C 112.774,319.597 112.44,317.93 111,316.5C 110.5,309.174 110.334,301.841 110.5,294.5C 149.167,294.167 149.167,293.833 110.5,293.5C 110.5,289.833 110.5,286.167 110.5,282.5C 108.856,282.286 107.356,282.62 106,283.5C 105.667,282.833 105.333,282.167 105,281.5C 104.501,285.486 104.334,289.486 104.5,293.5C 100.818,293.335 97.1516,293.501 93.5,294C 97.0252,294.179 100.359,294.679 103.5,295.5C 99.8333,295.5 96.1667,295.5 92.5,295.5C 92.5,294.5 92.5,293.5 92.5,292.5C 96.3714,292.815 100.038,292.482 103.5,291.5C 103.5,286.833 103.5,282.167 103.5,277.5C 100.167,277.5 96.8333,277.5 93.5,277.5C 92.2089,276.458 92.2089,275.292 93.5,274C 96.8168,273.502 100.15,273.335 103.5,273.5C 103.335,269.818 103.501,266.152 104,262.5C 106.605,261.186 109.105,261.186 111.5,262.5 Z"/></g>
<g><path style="opacity:0.855" fill="#e59f81" d="M 135.5,319.5 C 135.027,320.906 134.027,321.573 132.5,321.5C 132.973,320.094 133.973,319.427 135.5,319.5 Z"/></g>
<g><path style="opacity:1" fill="#e39166" d="M 145.5,305.5 C 145.391,308.899 144.058,311.566 141.5,313.5C 142.472,310.563 143.805,307.897 145.5,305.5 Z"/></g>
<g><path style="opacity:1" fill="#ee9c6d" d="M 115.5,320.5 C 119.009,323.115 123.009,324.115 127.5,323.5C 123.981,324.808 120.315,324.808 116.5,323.5C 115.873,322.583 115.539,321.583 115.5,320.5 Z"/></g>
<g><path style="opacity:1" fill="#de8353" d="M 350.5,311.5 C 349.531,316.542 349.197,321.542 349.5,326.5C 347.452,327.77 345.452,328.103 343.5,327.5C 341.929,325.029 340.929,322.363 340.5,319.5C 342.27,320.856 343.603,322.689 344.5,325C 345.793,325.49 347.127,325.657 348.5,325.5C 347.897,320.381 348.564,315.715 350.5,311.5 Z"/></g>
<g><path style="opacity:1" fill="#de997d" d="M 223.5,323.5 C 225.994,325.594 225.994,327.594 223.5,329.5C 223.5,327.5 223.5,325.5 223.5,323.5 Z"/></g>
<g><path style="opacity:1" fill="#e55306" d="M 280.5,323.5 C 285.316,324.326 290.316,324.826 295.5,325C 297.002,325.583 298.335,326.416 299.5,327.5C 291.454,328.964 283.621,328.298 276,325.5C 275.833,325.167 275.667,324.833 275.5,324.5C 277.045,323.548 278.712,323.215 280.5,323.5 Z"/></g>
<g><path style="opacity:0.992" fill="#e8a077" d="M 274.5,327.5 C 277.152,327.41 279.485,328.076 281.5,329.5C 278.848,329.59 276.515,328.924 274.5,327.5 Z"/></g>
<g><path style="opacity:1" fill="#dd7f4a" d="M 387.5,324.5 C 382.051,329.12 375.717,330.62 368.5,329C 366.509,328.626 364.842,327.793 363.5,326.5C 369.841,327.779 376.174,327.779 382.5,326.5C 382.5,325.5 382.5,324.5 382.5,323.5C 384.292,323.366 385.958,323.699 387.5,324.5 Z"/></g>
<g><path style="opacity:0.988" fill="#d37b4d" d="M 455.5,316.5 C 456.167,327.008 456.833,337.674 457.5,348.5C 461.423,346.147 465.423,345.98 469.5,348C 471.141,349.129 472.141,350.629 472.5,352.5C 467.474,348.446 461.807,347.446 455.5,349.5C 455.5,338.5 455.5,327.5 455.5,316.5 Z"/></g>
<g><path style="opacity:1" fill="#da8051" d="M 113.5,328.5 C 120.157,329.702 126.823,329.702 133.5,328.5C 126.788,332.344 120.121,332.344 113.5,328.5 Z"/></g>
<g><path style="opacity:1" fill="#e7a57f" d="M 215.5,329.5 C 217.764,330.219 220.097,330.552 222.5,330.5C 219.852,333.262 217.519,332.929 215.5,329.5 Z"/></g>
<g><path style="opacity:1" fill="#e58c5f" d="M 439.5,325.5 C 439.662,327.527 439.495,329.527 439,331.5C 438.329,332.252 437.496,332.586 436.5,332.5C 437.869,330.268 438.869,327.934 439.5,325.5 Z"/></g>
<g><path style="opacity:1" fill="#df7e4f" d="M 436.5,332.5 C 435.217,334.606 434.384,336.94 434,339.5C 432.729,340.883 431.229,341.883 429.5,342.5C 431.062,338.608 433.395,335.275 436.5,332.5 Z"/></g>
<g><path style="opacity:1" fill="#f5cdcf" d="M 308.5,363.5 C 309.263,364.268 310.263,364.768 311.5,365C 318.826,365.5 326.159,365.666 333.5,365.5C 333.5,368.167 333.5,370.833 333.5,373.5C 326.5,373.5 319.5,373.5 312.5,373.5C 311.5,373.5 310.5,373.5 309.5,373.5C 298.633,370.608 287.633,367.775 276.5,365C 269.347,364.627 262.347,363.46 255.5,361.5C 255.5,360.5 255.5,359.5 255.5,358.5C 253.856,358.714 252.356,358.38 251,357.5C 250.333,358.167 249.667,358.833 249,359.5C 237.718,357.221 226.551,354.388 215.5,351C 202.672,350.313 190.005,348.813 177.5,346.5C 168.666,347.111 160,348.111 151.5,349.5C 126.53,354.657 103.03,363.657 81,376.5C 79.7341,373.669 79.7341,370.669 81,367.5C 104.398,352.554 129.898,343.388 157.5,340C 173.248,338.952 188.915,339.619 204.5,342C 233.306,347.695 261.973,354.028 290.5,361C 296.476,362.068 302.476,362.901 308.5,363.5 Z"/></g>
<g><path style="opacity:1" fill="#e35509" d="M 455.5,312.5 C 455.5,313.833 455.5,315.167 455.5,316.5C 455.5,327.5 455.5,338.5 455.5,349.5C 461.807,347.446 467.474,348.446 472.5,352.5C 472.709,353.922 473.209,355.255 474,356.5C 475.011,355.663 476.178,355.33 477.5,355.5C 477.414,356.496 477.748,357.329 478.5,358C 476.1,358.186 473.766,358.686 471.5,359.5C 470.691,361.071 470.357,362.738 470.5,364.5C 469.738,366.262 468.404,367.262 466.5,367.5C 463.433,367.879 462.433,366.879 463.5,364.5C 464.476,363.185 465.476,361.852 466.5,360.5C 466.376,359.893 466.043,359.56 465.5,359.5C 465.167,359.5 464.833,359.5 464.5,359.5C 460.119,359.628 455.785,359.295 451.5,358.5C 451.5,359.833 451.5,361.167 451.5,362.5C 450.178,362.67 449.011,362.337 448,361.5C 448.019,363.107 448.185,364.774 448.5,366.5C 447.564,367.974 446.23,368.974 444.5,369.5C 443.127,369.343 441.793,369.51 440.5,370C 441.167,372 441.833,374 442.5,376C 445.817,376.977 448.484,376.144 450.5,373.5C 452.54,372.481 454.54,372.481 456.5,373.5C 454.922,374.298 453.256,374.798 451.5,375C 452.167,375.333 452.833,375.667 453.5,376C 449.786,378.361 445.786,379.861 441.5,380.5C 441.5,381.833 441.5,383.167 441.5,384.5C 440.833,385.833 439.833,386.833 438.5,387.5C 436.712,386.378 434.712,386.211 432.5,387C 434.037,388.11 434.703,389.61 434.5,391.5C 433.167,391.5 431.833,391.5 430.5,391.5C 430.5,392.5 430.5,393.5 430.5,394.5C 425.652,395.988 420.652,396.821 415.5,397C 412.813,397.728 410.48,398.895 408.5,400.5C 407.432,401.434 406.099,401.768 404.5,401.5C 401.5,401.5 398.5,401.5 395.5,401.5C 391.651,401.981 389.651,400.314 389.5,396.5C 392.231,395.973 394.898,395.14 397.5,394C 398.883,392.729 399.883,391.229 400.5,389.5C 402.147,387.674 404.147,386.34 406.5,385.5C 407.873,385.657 409.207,385.49 410.5,385C 411.304,383.229 412.471,381.729 414,380.5C 414.495,378.527 414.662,376.527 414.5,374.5C 416.781,374.923 418.448,374.256 419.5,372.5C 419.739,370.533 419.406,368.699 418.5,367C 415.854,366.503 413.187,366.336 410.5,366.5C 409.549,367.919 409.216,369.585 409.5,371.5C 398.181,370.539 386.848,370.372 375.5,371C 374.944,371.383 374.611,371.883 374.5,372.5C 373.833,372.5 373.5,372.833 373.5,373.5C 371.833,373.5 370.167,373.5 368.5,373.5C 360.14,373.831 351.807,373.498 343.5,372.5C 344.243,371.818 344.909,371.151 345.5,370.5C 345.833,370.5 346.167,370.5 346.5,370.5C 354.824,369.669 363.158,368.835 371.5,368C 374.187,367.272 376.52,366.105 378.5,364.5C 379.808,363.768 381.142,362.934 382.5,362C 379.598,359.583 376.598,357.416 373.5,355.5C 373.027,354.094 372.027,353.427 370.5,353.5C 370.5,352.5 370.5,351.5 370.5,350.5C 374.179,350.724 377.846,351.058 381.5,351.5C 381.833,351.5 382.167,351.5 382.5,351.5C 384.121,353.117 386.121,354.284 388.5,355C 394.825,355.5 401.158,355.666 407.5,355.5C 414.421,355.414 421.088,354.248 427.5,352C 428.61,348.951 429.277,345.784 429.5,342.5C 431.229,341.883 432.729,340.883 434,339.5C 434.384,336.94 435.217,334.606 436.5,332.5C 437.496,332.586 438.329,332.252 439,331.5C 439.495,329.527 439.662,327.527 439.5,325.5C 439.5,325.167 439.5,324.833 439.5,324.5C 440.806,319.384 441.473,314.051 441.5,308.5C 441.5,308.167 441.5,307.833 441.5,307.5C 442.79,306.942 443.623,305.942 444,304.5C 444.315,302.414 444.815,300.414 445.5,298.5C 446.375,296.432 447.541,294.432 449,292.5C 449.743,294.645 450.576,294.811 451.5,293C 451.689,290.369 451.355,287.702 450.5,285C 451.91,281.741 453.577,278.574 455.5,275.5C 454.449,287.823 454.449,300.157 455.5,312.5 Z M 410.5,366.5 C 413.187,366.336 415.854,366.503 418.5,367C 419.406,368.699 419.739,370.533 419.5,372.5C 417.5,372.167 415.5,371.833 413.5,371.5C 412.833,370.167 411.833,369.167 410.5,368.5C 410.5,367.833 410.5,367.167 410.5,366.5 Z"/></g>
<g><path style="opacity:0.992" fill="#db8958" d="M 366.5,346.5 C 364.473,346.338 362.473,346.505 360.5,347C 361.381,347.708 362.047,348.542 362.5,349.5C 360.059,348.443 357.725,347.11 355.5,345.5C 359.431,344.119 363.098,344.453 366.5,346.5 Z"/></g>
<g><path style="opacity:1" fill="#db7138" d="M 366.5,346.5 C 371.784,347.595 376.784,349.261 381.5,351.5C 377.846,351.058 374.179,350.724 370.5,350.5C 370.5,351.5 370.5,352.5 370.5,353.5C 367.515,352.674 364.849,351.341 362.5,349.5C 362.047,348.542 361.381,347.708 360.5,347C 362.473,346.505 364.473,346.338 366.5,346.5 Z"/></g>
<g><path style="opacity:0.475" fill="#f5ac86" d="M 370.5,353.5 C 372.027,353.427 373.027,354.094 373.5,355.5C 371.973,355.573 370.973,354.906 370.5,353.5 Z"/></g>
<g><path style="opacity:1" fill="#e09165" d="M 382.5,351.5 C 390.616,354.043 398.949,355.043 407.5,354.5C 407.5,354.833 407.5,355.167 407.5,355.5C 401.158,355.666 394.825,355.5 388.5,355C 386.121,354.284 384.121,353.117 382.5,351.5 Z"/></g>
<g><path style="opacity:1" fill="#d9692e" d="M 429.5,342.5 C 429.277,345.784 428.61,348.951 427.5,352C 421.088,354.248 414.421,355.414 407.5,355.5C 407.5,355.167 407.5,354.833 407.5,354.5C 413.713,353.652 419.713,351.985 425.5,349.5C 427.127,347.235 428.461,344.901 429.5,342.5 Z"/></g>
<g><path style="opacity:1" fill="#e58a56" d="M 472.5,352.5 C 474.113,353.692 475.78,354.692 477.5,355.5C 476.178,355.33 475.011,355.663 474,356.5C 473.209,355.255 472.709,353.922 472.5,352.5 Z"/></g>
<g><path style="opacity:1" fill="#f3d6d7" d="M 309.5,373.5 C 301.399,373.094 293.399,371.928 285.5,370C 258.841,364.001 232.174,358.001 205.5,352C 187.573,349.151 169.573,348.318 151.5,349.5C 160,348.111 168.666,347.111 177.5,346.5C 190.005,348.813 202.672,350.313 215.5,351C 226.551,354.388 237.718,357.221 249,359.5C 249.667,358.833 250.333,358.167 251,357.5C 252.356,358.38 253.856,358.714 255.5,358.5C 255.5,359.5 255.5,360.5 255.5,361.5C 262.347,363.46 269.347,364.627 276.5,365C 287.633,367.775 298.633,370.608 309.5,373.5 Z"/></g>
<g><path style="opacity:1" fill="#e37c44" d="M 464.5,359.5 C 464.5,359.833 464.5,360.167 464.5,360.5C 458.101,360.053 452.768,362.053 448.5,366.5C 448.185,364.774 448.019,363.107 448,361.5C 449.011,362.337 450.178,362.67 451.5,362.5C 451.5,361.167 451.5,359.833 451.5,358.5C 455.785,359.295 460.119,359.628 464.5,359.5 Z"/></g>
<g><path style="opacity:1" fill="#e28754" d="M 477.5,355.5 C 478.812,356.145 479.812,357.145 480.5,358.5C 476.145,359.003 472.811,361.003 470.5,364.5C 470.357,362.738 470.691,361.071 471.5,359.5C 473.766,358.686 476.1,358.186 478.5,358C 477.748,357.329 477.414,356.496 477.5,355.5 Z"/></g>
<g><path style="opacity:0.816" fill="#e5a26d" d="M 465.5,359.5 C 466.043,359.56 466.376,359.893 466.5,360.5C 465.476,361.852 464.476,363.185 463.5,364.5C 462.833,364.5 462.167,364.5 461.5,364.5C 462.5,363.167 463.5,361.833 464.5,360.5C 465.167,360.5 465.5,360.167 465.5,359.5 Z"/></g>
<g><path style="opacity:0.386" fill="#fbecea" d="M 308.5,363.5 C 317.576,363.728 326.409,364.728 335,366.5C 335.251,368.433 335.751,370.266 336.5,372C 336.043,372.414 335.709,372.914 335.5,373.5C 327.677,374.82 320.01,374.82 312.5,373.5C 319.5,373.5 326.5,373.5 333.5,373.5C 333.5,370.833 333.5,368.167 333.5,365.5C 326.159,365.666 318.826,365.5 311.5,365C 310.263,364.768 309.263,364.268 308.5,363.5 Z"/></g>
<g><path style="opacity:1" fill="#d7733e" d="M 378.5,364.5 C 376.52,366.105 374.187,367.272 371.5,368C 363.158,368.835 354.824,369.669 346.5,370.5C 357.003,368.302 367.67,366.302 378.5,364.5 Z"/></g>
<g><path style="opacity:1" fill="#e07b44" d="M 461.5,364.5 C 462.167,364.5 462.833,364.5 463.5,364.5C 462.433,366.879 463.433,367.879 466.5,367.5C 462.418,370.734 458.418,374.234 454.5,378C 450.14,380.18 445.807,382.347 441.5,384.5C 441.5,383.167 441.5,381.833 441.5,380.5C 445.786,379.861 449.786,378.361 453.5,376C 452.833,375.667 452.167,375.333 451.5,375C 453.256,374.798 454.922,374.298 456.5,373.5C 454.54,372.481 452.54,372.481 450.5,373.5C 453.943,370.271 457.61,367.271 461.5,364.5 Z"/></g>
<g><path style="opacity:0.835" fill="#e7ae86" d="M 410.5,368.5 C 411.833,369.167 412.833,370.167 413.5,371.5C 411.5,371.5 410.5,370.5 410.5,368.5 Z"/></g>
<g><path style="opacity:1" fill="#d6662b" d="M 410.5,366.5 C 410.5,367.167 410.5,367.833 410.5,368.5C 410.5,370.5 411.5,371.5 413.5,371.5C 415.5,371.833 417.5,372.167 419.5,372.5C 418.448,374.256 416.781,374.923 414.5,374.5C 414.662,376.527 414.495,378.527 414,380.5C 412.471,381.729 411.304,383.229 410.5,385C 409.207,385.49 407.873,385.657 406.5,385.5C 409.498,383.497 411.831,380.83 413.5,377.5C 409.557,374.852 405.224,373.185 400.5,372.5C 391.981,371.274 383.315,371.274 374.5,372.5C 374.611,371.883 374.944,371.383 375.5,371C 386.848,370.372 398.181,370.539 409.5,371.5C 409.216,369.585 409.549,367.919 410.5,366.5 Z"/></g>
<g><path style="opacity:0.243" fill="#ebae87" d="M 400.5,372.5 C 391.476,372.358 382.476,372.692 373.5,373.5C 373.5,372.833 373.833,372.5 374.5,372.5C 383.315,371.274 391.981,371.274 400.5,372.5 Z"/></g>
<g><path style="opacity:0.786" fill="#da9069" d="M 345.5,370.5 C 344.909,371.151 344.243,371.818 343.5,372.5C 351.807,373.498 360.14,373.831 368.5,373.5C 359.676,374.657 350.676,374.824 341.5,374C 340.5,373.667 339.5,373.333 338.5,373C 340.441,371.097 342.774,370.264 345.5,370.5 Z"/></g>
<g><path style="opacity:1" fill="#dd7841" d="M 444.5,369.5 C 442.613,371.511 442.446,373.511 444,375.5C 446.087,374.603 448.254,373.936 450.5,373.5C 448.484,376.144 445.817,376.977 442.5,376C 441.833,374 441.167,372 440.5,370C 441.793,369.51 443.127,369.343 444.5,369.5 Z"/></g>
<g><path style="opacity:1" fill="#dd743d" d="M 438.5,387.5 C 436.633,391.052 433.966,393.886 430.5,396C 423.419,398.68 416.086,400.18 408.5,400.5C 410.48,398.895 412.813,397.728 415.5,397C 420.652,396.821 425.652,395.988 430.5,394.5C 430.5,393.5 430.5,392.5 430.5,391.5C 431.833,391.5 433.167,391.5 434.5,391.5C 434.703,389.61 434.037,388.11 432.5,387C 434.712,386.211 436.712,386.378 438.5,387.5 Z"/></g>
<g><path style="opacity:1" fill="#de5c19" d="M 400.5,389.5 C 399.883,391.229 398.883,392.729 397.5,394C 394.898,395.14 392.231,395.973 389.5,396.5C 389.651,400.314 391.651,401.981 395.5,401.5C 394.167,402.5 392.833,403.5 391.5,404.5C 391.167,404.5 390.833,404.5 390.5,404.5C 387.612,403.99 385.279,404.656 383.5,406.5C 380.306,406.27 377.306,406.936 374.5,408.5C 373.833,408.167 373.167,407.833 372.5,407.5C 373.18,406.14 373.847,404.807 374.5,403.5C 382.84,398.328 391.507,393.662 400.5,389.5 Z"/></g>
<g><path style="opacity:1" fill="#de8958" d="M 395.5,401.5 C 398.5,401.5 401.5,401.5 404.5,401.5C 400.368,402.863 396.035,403.863 391.5,404.5C 392.833,403.5 394.167,402.5 395.5,401.5 Z"/></g>
<g><path style="opacity:1" fill="#e28756" d="M 390.5,404.5 C 388.401,405.612 386.067,406.279 383.5,406.5C 385.279,404.656 387.612,403.99 390.5,404.5 Z"/></g>
<g><path style="opacity:1" fill="#dc7139" d="M 374.5,403.5 C 373.847,404.807 373.18,406.14 372.5,407.5C 373.167,407.833 373.833,408.167 374.5,408.5C 377.306,406.936 380.306,406.27 383.5,406.5C 376.439,409.529 369.439,412.862 362.5,416.5C 361.369,414.926 361.202,413.259 362,411.5C 366.068,408.583 370.234,405.917 374.5,403.5 Z"/></g>
<g><path style="opacity:0.512" fill="#fbe3c3" d="M 63.5,428.5 C 66.2615,430.212 69.2615,431.378 72.5,432C 160.334,432.167 248.001,432.667 335.5,433.5C 246.459,433.828 157.459,433.495 68.5,432.5C 65.0504,433.244 63.3838,431.91 63.5,428.5 Z"/></g>
<g><path style="opacity:1" fill="#f7cd98" d="M 68.5,432.5 C 157.459,433.495 246.459,433.828 335.5,433.5C 346.094,435.774 351.761,442.441 352.5,453.5C 352.071,456.029 351.404,458.362 350.5,460.5C 350.665,457.15 350.498,453.817 350,450.5C 348.479,442.17 343.645,437.003 335.5,435C 246.833,434.667 158.167,434.333 69.5,434C 68.944,433.617 68.6107,433.117 68.5,432.5 Z"/></g>
<g><path style="opacity:1" fill="#fad4a0" d="M 21.5,444.5 C 23.471,446.152 25.8044,447.319 28.5,448C 29.5949,451.647 31.5949,454.647 34.5,457C 37.6073,458.691 40.9406,459.858 44.5,460.5C 43.9747,461.192 43.3081,461.692 42.5,462C 45.1848,463.161 47.1848,464.994 48.5,467.5C 37.3873,462.393 28.3873,454.726 21.5,444.5 Z"/></g>
<g><path style="opacity:0.934" fill="#faddb9" d="M 350.5,460.5 C 347.422,468.061 341.755,472.561 333.5,474C 246.5,474.667 159.5,474.667 72.5,474C 64.243,473.522 56.5763,471.356 49.5,467.5C 54.3263,468.784 59.1596,468.784 64,467.5C 65.1667,467.833 66.3333,468.167 67.5,468.5C 65.5767,469.308 63.5767,469.808 61.5,470C 65.5577,470.34 69.5577,471.007 73.5,472C 160.833,472.667 248.167,472.667 335.5,472C 339.774,471.19 343.44,469.356 346.5,466.5C 346.948,463.828 348.281,461.828 350.5,460.5 Z"/></g>
</svg>
