<?xml version="1.0" standalone="no"?>
<!DOCTYPE svg PUBLIC "-//W3C//DTD SVG 20010904//EN"
 "http://www.w3.org/TR/2001/REC-SVG-20010904/DTD/svg10.dtd">
<svg version="1.0" xmlns="http://www.w3.org/2000/svg"
 width="500.000000pt" height="500.000000pt" viewBox="0 0 500.000000 500.000000"
 preserveAspectRatio="xMidYMid meet">

<g transform="translate(0.000000,500.000000) scale(0.100000,-0.100000)"
fill="#000000" stroke="none">
<path d="M2873 2390 c-28 -11 -28 -16 -3 -80 11 -28 20 -53 20 -55 0 -3 -65
-5 -145 -5 -122 0 -145 -2 -145 -15 0 -13 24 -15 154 -15 l154 0 46 -117 c25
-64 44 -118 42 -120 -2 -2 -31 5 -65 17 -70 23 -157 26 -205 6 -41 -17 -82
-70 -91 -116 -4 -26 0 -47 17 -80 35 -68 107 -101 232 -108 112 -6 162 2 168
26 10 39 1 42 -105 36 -121 -8 -177 5 -220 47 -26 26 -29 35 -24 71 9 64 43
91 119 96 53 3 77 -1 145 -27 70 -27 84 -30 107 -20 15 7 25 17 22 23 -2 6
-24 58 -49 116 -71 166 -75 150 42 150 83 0 101 3 101 15 0 12 -19 15 -108 15
l-108 0 -30 72 c-16 39 -33 73 -39 74 -5 2 -20 -1 -32 -6z"/>
<path d="M3996 2379 c-14 -11 -26 -27 -26 -34 0 -12 -33 -15 -177 -17 -160 -3
-178 -5 -181 -20 -3 -16 7 -18 107 -18 l111 0 0 -75 0 -75 -110 0 c-90 0 -110
-3 -110 -15 0 -12 22 -15 113 -17 l112 -3 0 -100 0 -100 -71 3 c-74 4 -101 -4
-141 -41 -35 -32 -31 -88 7 -121 77 -64 245 -33 266 49 8 32 17 31 76 -6 39
-26 51 -29 63 -19 32 26 17 48 -55 82 l-70 33 0 112 0 112 67 3 c42 2 68 8 71
16 3 9 -15 12 -67 12 l-71 0 0 75 c0 74 0 75 26 75 14 0 40 -12 57 -26 77 -65
174 40 102 111 -30 30 -64 32 -99 4z m90 -34 c11 -16 11 -25 1 -45 -18 -36
-66 -35 -86 2 -14 24 -14 28 4 48 23 26 62 23 81 -5z m-273 -481 c23 -7 22
-45 -4 -78 -17 -22 -28 -26 -73 -26 -61 0 -76 12 -76 57 0 29 5 36 33 48 29
14 71 13 120 -1z"/>
<path d="M2012 2246 c-140 -142 -168 -180 -155 -213 4 -9 83 -93 176 -185
l170 -169 26 25 25 26 -59 61 c-33 33 -98 90 -145 127 -114 88 -140 113 -140
133 0 18 84 101 218 214 45 38 82 75 82 81 0 13 -33 44 -47 44 -5 0 -73 -65
-151 -144z"/>
<path d="M1050 2315 l0 -55 -42 0 c-24 0 -49 -4 -57 -9 -24 -15 -1 -31 45 -31
l44 0 0 -75 0 -75 -60 0 c-47 0 -60 -3 -60 -15 0 -12 13 -15 60 -15 59 0 60
-1 61 -27 4 -180 36 -265 112 -302 83 -40 176 -19 255 59 74 73 139 220 98
220 -10 0 -25 -20 -40 -54 -65 -147 -214 -229 -293 -162 -38 32 -53 84 -53
185 l0 81 151 0 c116 0 150 3 147 13 -4 9 -45 13 -151 15 l-147 3 0 74 0 75
149 0 c99 0 152 4 157 11 13 22 -23 29 -163 29 l-143 0 0 55 0 55 -35 0 -35 0
0 -55z"/>
<path d="M3442 2333 c-5 -10 -18 -61 -28 -113 -24 -130 -24 -324 0 -405 26
-87 32 -96 59 -86 19 7 22 16 23 72 1 39 10 86 23 119 25 65 26 80 6 80 -8 0
-15 -1 -15 -2 0 -2 -11 -30 -25 -63 l-25 -60 -1 50 c-2 116 4 180 26 287 21
102 21 114 7 126 -22 17 -40 15 -50 -5z"/>
<path d="M4553 2264 c-28 -40 -36 -58 -89 -229 -29 -92 -48 -174 -55 -240 -7
-71 -15 -106 -28 -120 -25 -27 -72 -102 -93 -147 -15 -33 -24 -39 -90 -60 -58
-18 -96 -23 -183 -23 -104 0 -118 3 -250 47 -235 77 -245 75 -75 -17 102 -55
160 -98 148 -110 -11 -12 -113 -35 -260 -60 -81 -14 -155 -29 -165 -33 -31
-12 114 -18 242 -8 66 5 183 9 260 10 124 1 145 -1 188 -21 26 -12 47 -27 47
-34 0 -26 -90 -96 -196 -153 -227 -122 -349 -203 -333 -221 4 -3 40 10 80 31
101 51 153 67 309 99 311 62 276 50 347 121 36 34 97 81 136 103 40 21 88 56
107 76 19 20 50 43 68 50 18 8 40 28 50 44 11 20 29 33 52 39 l35 9 -37 18
c-21 10 -40 26 -43 36 -3 9 -17 25 -32 34 -25 17 -52 16 -109 0 -21 -6 -21 -4
-18 97 1 57 -2 153 -9 215 -9 93 -8 135 7 260 10 81 16 164 14 183 l-3 35 -22
-31z m117 -814 c0 -5 -4 -10 -10 -10 -5 0 -10 5 -10 10 0 6 5 10 10 10 6 0 10
-4 10 -10z m0 -59 c0 -12 -102 -101 -148 -128 -20 -13 -52 -23 -69 -23 -50 0
-42 27 24 90 43 41 67 56 98 61 60 10 95 10 95 0z m-466 -67 c9 -24 7 -52 -4
-59 -30 -19 -112 38 -95 65 11 17 92 12 99 -6z"/>
<path d="M2150 2150 c0 -53 2 -60 20 -60 18 0 20 7 20 60 0 53 -2 60 -20 60
-18 0 -20 -7 -20 -60z"/>
<path d="M2230 2150 c0 -53 2 -61 18 -58 14 3 17 14 17 58 0 44 -3 55 -17 58
-16 3 -18 -5 -18 -58z"/>
</g>
</svg>
